<?xml version="1.0" encoding="utf-8"?>
<!-- Generator: Adobe Illustrator 16.0.0, SVG Export Plug-In . SVG Version: 6.00 Build 0)  -->
<!DOCTYPE svg PUBLIC "-//W3C//DTD SVG 1.1//EN" "http://www.w3.org/Graphics/SVG/1.1/DTD/svg11.dtd">
<svg version="1.1" id="Capa_1" xmlns="http://www.w3.org/2000/svg" xmlns:xlink="http://www.w3.org/1999/xlink" x="0px" y="0px"
	 width="289.3px" height="330.1px" viewBox="0 0 289.3 330.1" enable-background="new 0 0 289.3 330.1" xml:space="preserve">
<g>
	<path fill="#FFFFFF" d="M0,88.7c0-4,2.8-8.9,6.3-10.9L138.4,1.5c3.5-2,9.1-2,12.6,0l132.1,76.3c3.5,2,6.3,6.9,6.3,10.9v152.6
		c0,4-2.8,8.9-6.3,10.9l-132.1,76.3c-3.5,2-9.1,2-12.6,0L6.3,252.2c-3.5-2-6.3-6.9-6.3-10.9V88.7L0,88.7z"/>
	<g>
		<g>
			<g>
				<g>
					<g>
						<path fill="#293549" d="M69,55.3c0-5,4-8.9,8.9-8.9h133.8c5,0,8.9,4,8.9,8.9v219.5c0,5-4,8.9-8.9,8.9H77.9c-5,0-8.9-4-8.9-8.9
							V55.3z"/>
					</g>
				</g>
				<g>
					<g>
						<rect x="77.9" y="77.5" fill="#3BAB5E" width="133.8" height="167.6"/>
					</g>
				</g>
				<g>
					<g>
						<g>
							<path fill="#F7F8F9" d="M150.3,60.9h-11.1c-0.3,0-0.5-0.2-0.5-0.5c0-0.2,0.2-0.5,0.5-0.5h11.1c0.3,0,0.5,0.2,0.5,0.5
								C150.8,60.8,150.6,60.9,150.3,60.9z"/>
						</g>
					</g>
					<g>
						<g>
							<path fill="#F7F8F9" d="M153.9,63.4h-18.2c-0.2,0-0.5-0.2-0.5-0.5c0-0.3,0.2-0.5,0.5-0.5h18.2c0.2,0,0.5,0.2,0.5,0.5
								C154.4,63.3,154.2,63.4,153.9,63.4z"/>
						</g>
					</g>
					<g>
						<g>
							<path fill="#F7F8F9" d="M150.3,65.7h-11.1c-0.2,0-0.5-0.2-0.5-0.5c0-0.2,0.2-0.5,0.5-0.5h11.1c0.3,0,0.5,0.2,0.5,0.5
								C150.8,65.6,150.6,65.7,150.3,65.7z"/>
						</g>
					</g>
				</g>
			</g>
			<g>
				<path fill="#F7F8F9" d="M144.8,275.6c-5.3,0-9.6-4.3-9.6-9.7s4.3-9.6,9.6-9.6c5.3,0,9.6,4.3,9.6,9.6
					C154.4,271.2,150.1,275.6,144.8,275.6z M144.8,257.1c-4.8,0-8.8,4-8.8,8.8c0,4.8,4,8.8,8.8,8.8c4.8,0,8.8-4,8.8-8.8
					C153.6,261.1,149.6,257.1,144.8,257.1z"/>
			</g>
		</g>
		<rect x="89" y="86.4" fill="#F7F8F9" width="111.5" height="31.5"/>
		<g>
			<rect x="128.2" y="128.3" opacity="0.4" fill="#424143" enable-background="new    " width="72.5" height="31.5"/>
			<rect x="89" y="128" opacity="0.4" fill="#424143" enable-background="new    " width="31.9" height="31.9"/>
			<rect x="128.2" y="167.6" opacity="0.4" fill="#424143" enable-background="new    " width="72.5" height="31.5"/>
			<rect x="89" y="167.3" opacity="0.4" fill="#424143" enable-background="new    " width="31.9" height="31.9"/>
			<rect x="128.2" y="206.8" opacity="0.4" fill="#424143" enable-background="new    " width="72.5" height="31.5"/>
			<rect x="89" y="206.6" opacity="0.4" fill="#424143" enable-background="new    " width="31.9" height="31.9"/>
		</g>
	</g>
	<path opacity="0.1" fill="#221F1F" enable-background="new    " d="M283.1,77.8L150.8,1.5c-1.7-1-3.8-1.5-5.9-1.5v330.1
		c2.1,0,4.3-0.5,5.9-1.5l132.1-76.3c3.5-2,6.3-6.9,6.3-10.9V88.7C289.3,84.7,286.5,79.8,283.1,77.8z"/>
</g>
<g>
</g>
<g>
</g>
<g>
</g>
<g>
</g>
<g>
</g>
<g>
</g>
<g>
</g>
<g>
</g>
<g>
</g>
<g>
</g>
<g>
</g>
<g>
</g>
<g>
</g>
<g>
</g>
<g>
</g>
</svg>
