<?xml version="1.0" encoding="utf-8"?>
<!-- Generator: Adobe Illustrator 16.0.0, SVG Export Plug-In . SVG Version: 6.00 Build 0)  -->
<!DOCTYPE svg PUBLIC "-//W3C//DTD SVG 1.1//EN" "http://www.w3.org/Graphics/SVG/1.1/DTD/svg11.dtd">
<svg version="1.1" id="Capa_1" xmlns="http://www.w3.org/2000/svg" xmlns:xlink="http://www.w3.org/1999/xlink" x="0px" y="0px"
	 width="130.6px" height="35.5px" viewBox="0 0 130.6 35.5" enable-background="new 0 0 130.6 35.5" xml:space="preserve">
<g>
	<g id="Logo_2_">
		<g id="xamagon_2_">
			<path id="Logo-2_2_" fill="#3A0CB1" d="M0,25.3c0,0.9,0.5,1.9,1.3,2.4l13,7.5c0.8,0.4,1.9,0.4,2.7,0l12.8-7.5
				c0.7-0.5,1.2-1.4,1.1-2.4v-15c0.1-0.9-0.4-1.9-1.1-2.4L16.9,0.4c-0.8-0.5-1.9-0.5-2.7,0L1.3,7.9C0.5,8.4,0,9.3,0,10.3V25.3z
				 M7.3,25.2v-2.7c0.1-0.1,0.2-0.2,0.3-0.3l7.8-4.4h0.2l0,0l-7.9-4.4c-0.1-0.1-0.2-0.2-0.3-0.3v-2.6c0.1-0.2,0.4-0.4,0.6-0.3
				l7.7,4.3l7.6-4.3c0.2-0.1,0.4,0.1,0.5,0.3l0,0v2.6l-0.2,0.3L16,17.8v0.1l7.7,4.4l0.2,0.3v2.6c0,0.2,0,0.3-0.2,0.4
				c-0.1,0-0.2,0-0.3-0.1l-7.6-4.3L8,25.5c-0.2,0.1-0.4,0-0.5-0.2l0,0L7.3,25.2z"/>
		</g>
	</g>
	<g>
		<path fill="#FFFFFF" d="M38.2,32.2c-0.9,0-1.6-0.1-2.2-0.4v-2.1c0.7,0.2,1.4,0.3,2.2,0.3c1,0,1.7-0.3,2.2-0.9
			c0.5-0.6,0.8-1.4,0.8-2.5V5.1h2.5v21.2c0,1.9-0.5,3.3-1.4,4.3C41.3,31.7,40,32.2,38.2,32.2z"/>
		<path fill="#FFFFFF" d="M68,15.8c0,3.4-0.9,6.1-2.6,8.1c-1.7,2-4.1,2.9-7.2,2.9c-3.2,0-5.6-1-7.3-2.9c-1.7-1.9-2.6-4.7-2.6-8.2
			c0-3.5,0.9-6.2,2.6-8.1s4.2-2.9,7.3-2.9c3.1,0,5.5,1,7.2,2.9S68,12.4,68,15.8z M50.9,15.8c0,2.9,0.6,5.1,1.9,6.6
			c1.2,1.5,3,2.2,5.4,2.2c2.4,0,4.2-0.7,5.4-2.2s1.8-3.7,1.8-6.6c0-2.9-0.6-5.1-1.8-6.6c-1.2-1.5-3-2.2-5.4-2.2
			c-2.4,0-4.2,0.7-5.4,2.2S50.9,13,50.9,15.8z"/>
		<path fill="#FFFFFF" d="M89,26.6h-2.5V16.5H75.2v10.1h-2.5V5.1h2.5v9.1h11.3V5.1H89V26.6z"/>
		<path fill="#FFFFFF" d="M108.3,26.6l-2.7-6.8h-8.6l-2.6,6.8h-2.5l8.5-21.5h2.1l8.4,21.5H108.3z M104.9,17.5l-2.5-6.6
			c-0.3-0.8-0.7-1.9-1-3.1c-0.2,0.9-0.5,2-0.9,3.1L98,17.5H104.9z"/>
		<path fill="#FFFFFF" d="M130.6,26.6h-2.8L116,8.6h-0.1c0.2,2.1,0.2,4,0.2,5.8v12.2h-2.3V5.1h2.8L128.3,23h0.1
			c0-0.3-0.1-1.1-0.1-2.5s-0.1-2.5-0.1-3.1V5.1h2.3V26.6z"/>
	</g>
</g>
<g>
</g>
<g>
</g>
<g>
</g>
<g>
</g>
<g>
</g>
<g>
</g>
<g>
</g>
<g>
</g>
<g>
</g>
<g>
</g>
<g>
</g>
<g>
</g>
<g>
</g>
<g>
</g>
<g>
</g>
</svg>
