<?xml version="1.0" encoding="utf-8"?>
<!-- Generator: Adobe Illustrator 16.0.0, SVG Export Plug-In . SVG Version: 6.00 Build 0)  -->
<!DOCTYPE svg PUBLIC "-//W3C//DTD SVG 1.1//EN" "http://www.w3.org/Graphics/SVG/1.1/DTD/svg11.dtd">
<svg version="1.1" id="Capa_1" xmlns="http://www.w3.org/2000/svg" xmlns:xlink="http://www.w3.org/1999/xlink" x="0px" y="0px"
	 width="289.7px" height="431.5px" viewBox="0 0 289.7 431.5" enable-background="new 0 0 289.7 431.5" xml:space="preserve">
<g>
	
		<linearGradient id="SVGID_1_" gradientUnits="userSpaceOnUse" x1="-57.2476" y1="436.8535" x2="-40.8525" y2="436.8535" gradientTransform="matrix(2.2255 0 0 2.2255 205.6895 -791.0637)">
		<stop  offset="7.690000e-002" style="stop-color:#BDBDBD"/>
		<stop  offset="0.1295" style="stop-color:#C2C2C2"/>
		<stop  offset="0.3696" style="stop-color:#D7D7D7"/>
		<stop  offset="0.5275" style="stop-color:#DFDFDF"/>
		<stop  offset="1" style="stop-color:#CDCDCD"/>
	</linearGradient>
	<polygon fill="url(#SVGID_1_)" points="109.4,156.3 78.3,185.6 88.7,206 114.8,168.1 	"/>
	<g opacity="0.8">
		<ellipse fill="#FFFFFF" cx="176" cy="419.7" rx="113.7" ry="11.8"/>
		<ellipse opacity="0.9989" fill="#FEFEFE" enable-background="new    " cx="176" cy="419.7" rx="113.4" ry="11.8"/>
		<ellipse opacity="0.9979" fill="#FDFDFD" enable-background="new    " cx="176" cy="419.7" rx="113.1" ry="11.8"/>
		<ellipse opacity="0.9968" fill="#FCFCFC" enable-background="new    " cx="176" cy="419.7" rx="112.9" ry="11.6"/>
		<ellipse opacity="0.9958" fill="#FBFBFB" enable-background="new    " cx="176" cy="419.7" rx="112.7" ry="11.6"/>
		<ellipse opacity="0.9947" fill="#FAFAFA" enable-background="new    " cx="176" cy="419.7" rx="112.5" ry="11.6"/>
		<ellipse opacity="0.9936" fill="#F9F9F9" enable-background="new    " cx="176" cy="419.7" rx="112.2" ry="11.6"/>
		<ellipse opacity="0.9926" fill="#F8F8F8" enable-background="new    " cx="176" cy="419.7" rx="111.9" ry="11.6"/>
		<ellipse opacity="0.9915" fill="#F7F7F7" enable-background="new    " cx="176" cy="419.7" rx="111.7" ry="11.5"/>
		<ellipse opacity="0.9905" fill="#F6F6F6" enable-background="new    " cx="176" cy="419.7" rx="111.4" ry="11.5"/>
		<ellipse opacity="0.9894" fill="#F5F5F5" enable-background="new    " cx="176" cy="419.7" rx="111.1" ry="11.5"/>
		<ellipse opacity="0.9884" fill="#F4F4F4" enable-background="new    " cx="176" cy="419.7" rx="110.8" ry="11.5"/>
		<ellipse opacity="0.9873" fill="#F3F3F3" enable-background="new    " cx="176" cy="419.7" rx="110.6" ry="11.5"/>
		<ellipse opacity="0.9862" fill="#F2F2F2" enable-background="new    " cx="176" cy="419.7" rx="110.3" ry="11.5"/>
		<ellipse opacity="0.9852" fill="#F1F1F1" enable-background="new    " cx="176" cy="419.7" rx="110" ry="11.4"/>
		<ellipse opacity="0.9841" fill="#F0F0F0" enable-background="new    " cx="176" cy="419.7" rx="109.9" ry="11.4"/>
		<ellipse opacity="0.9831" fill="#EFEFEF" enable-background="new    " cx="176" cy="419.7" rx="109.6" ry="11.4"/>
		<ellipse opacity="0.982" fill="#EEEEEE" enable-background="new    " cx="176" cy="419.7" rx="109.4" ry="11.4"/>
		<ellipse opacity="0.981" fill="#EDEDED" enable-background="new    " cx="176" cy="419.7" rx="109.1" ry="11.4"/>
		<ellipse opacity="0.9799" fill="#ECECEC" enable-background="new    " cx="176" cy="419.7" rx="108.8" ry="11.2"/>
		<ellipse opacity="0.9788" fill="#EBEBEB" enable-background="new    " cx="176" cy="419.7" rx="108.5" ry="11.2"/>
		<ellipse opacity="0.9778" fill="#EAEAEA" enable-background="new    " cx="176" cy="419.7" rx="108.3" ry="11.2"/>
		<ellipse opacity="0.9767" fill="#E9E9E9" enable-background="new    " cx="176" cy="419.7" rx="108" ry="11.2"/>
		<ellipse opacity="0.9757" fill="#E8E8E8" enable-background="new    " cx="176" cy="419.7" rx="107.7" ry="11.2"/>
		<ellipse opacity="0.9746" fill="#E7E7E7" enable-background="new    " cx="176" cy="419.7" rx="107.5" ry="11.1"/>
		<ellipse opacity="0.9735" fill="#E6E6E6" enable-background="new    " cx="176" cy="419.7" rx="107.2" ry="11.1"/>
		<ellipse opacity="0.9725" fill="#E5E5E5" enable-background="new    " cx="176" cy="419.7" rx="107.1" ry="11.1"/>
		<ellipse opacity="0.9714" fill="#E4E4E4" enable-background="new    " cx="176" cy="419.7" rx="106.8" ry="11.1"/>
		<ellipse opacity="0.9704" fill="#E3E3E3" enable-background="new    " cx="176" cy="419.7" rx="106.5" ry="11"/>
		<ellipse opacity="0.9693" fill="#E2E2E2" enable-background="new    " cx="176" cy="419.7" rx="106.2" ry="11"/>
		<ellipse opacity="0.9683" fill="#E1E1E1" enable-background="new    " cx="176" cy="419.7" rx="106" ry="11"/>
		<ellipse opacity="0.9672" fill="#E0E0E0" enable-background="new    " cx="176" cy="419.7" rx="105.7" ry="11"/>
		<ellipse opacity="0.9661" fill="#DFDFDF" enable-background="new    " cx="176" cy="419.7" rx="105.4" ry="11"/>
		<ellipse opacity="0.9651" fill="#DEDEDE" enable-background="new    " cx="176" cy="419.7" rx="105.2" ry="10.8"/>
		<ellipse opacity="0.964" fill="#DDDDDD" enable-background="new    " cx="176" cy="419.7" rx="104.9" ry="10.8"/>
		<ellipse opacity="0.963" fill="#DCDCDC" enable-background="new    " cx="176" cy="419.7" rx="104.6" ry="10.8"/>
		<ellipse opacity="0.9619" fill="#DBDBDB" enable-background="new    " cx="176" cy="419.7" rx="104.3" ry="10.8"/>
		<ellipse opacity="0.9608" fill="#DADADA" enable-background="new    " cx="176" cy="419.7" rx="104.1" ry="10.8"/>
		<ellipse opacity="0.9598" fill="#D9D9D9" enable-background="new    " cx="176" cy="419.7" rx="103.9" ry="10.8"/>
		<ellipse opacity="0.9587" fill="#D8D8D8" enable-background="new    " cx="176" cy="419.7" rx="103.7" ry="10.7"/>
		<ellipse opacity="0.9577" fill="#D7D7D7" enable-background="new    " cx="176" cy="419.7" rx="103.4" ry="10.7"/>
		<ellipse opacity="0.9566" fill="#D6D6D6" enable-background="new    " cx="176" cy="419.7" rx="103.1" ry="10.7"/>
		<ellipse opacity="0.9556" fill="#D5D5D5" enable-background="new    " cx="176" cy="419.7" rx="102.9" ry="10.7"/>
		<ellipse opacity="0.9545" fill="#D4D4D4" enable-background="new    " cx="176" cy="419.7" rx="102.6" ry="10.7"/>
		<ellipse opacity="0.9534" fill="#D3D3D3" enable-background="new    " cx="176" cy="419.7" rx="102.3" ry="10.6"/>
		<ellipse opacity="0.9524" fill="#D2D2D2" enable-background="new    " cx="176" cy="419.7" rx="102" ry="10.6"/>
		<ellipse opacity="0.9513" fill="#D1D1D1" enable-background="new    " cx="176" cy="419.7" rx="101.8" ry="10.6"/>
		<ellipse opacity="0.9503" fill="#D0D0D0" enable-background="new    " cx="176" cy="419.7" rx="101.5" ry="10.6"/>
		<ellipse opacity="0.9492" fill="#CFCFCF" enable-background="new    " cx="176" cy="419.7" rx="101.2" ry="10.6"/>
		<ellipse opacity="0.9481" fill="#CECECE" enable-background="new    " cx="176" cy="419.7" rx="101.1" ry="10.4"/>
		<ellipse opacity="0.9471" fill="#CDCDCD" enable-background="new    " cx="176" cy="419.7" rx="100.8" ry="10.4"/>
		<ellipse opacity="0.946" fill="#CCCCCC" enable-background="new    " cx="176" cy="419.7" rx="100.6" ry="10.4"/>
		<ellipse opacity="0.945" fill="#CBCBCB" enable-background="new    " cx="176" cy="419.7" rx="100.3" ry="10.4"/>
		<ellipse opacity="0.9439" fill="#CACACA" enable-background="new    " cx="176" cy="419.7" rx="100" ry="10.4"/>
		<ellipse opacity="0.9429" fill="#C9C9C9" enable-background="new    " cx="176" cy="419.7" rx="99.7" ry="10.3"/>
		<ellipse opacity="0.9418" fill="#C8C8C8" enable-background="new    " cx="176" cy="419.7" rx="99.5" ry="10.3"/>
		<ellipse opacity="0.9407" fill="#C7C7C7" enable-background="new    " cx="176" cy="419.7" rx="99.2" ry="10.3"/>
		<ellipse opacity="0.9397" fill="#C6C6C6" enable-background="new    " cx="176" cy="419.7" rx="98.9" ry="10.3"/>
		<path opacity="0.9386" fill="#C5C5C5" enable-background="new    " d="M274.7,419.7c0,5.7-44.3,10.3-98.7,10.3
			c-54.4,0-98.7-4.6-98.7-10.3s44.3-10.3,98.7-10.3C230.5,409.4,274.7,414,274.7,419.7z"/>
		<ellipse opacity="0.9376" fill="#C4C4C4" enable-background="new    " cx="176" cy="419.7" rx="98.4" ry="10.2"/>
		<ellipse opacity="0.9365" fill="#C3C3C3" enable-background="new    " cx="176" cy="419.7" rx="98.3" ry="10.2"/>
		<ellipse opacity="0.9354" fill="#C2C2C2" enable-background="new    " cx="176" cy="419.7" rx="98" ry="10.2"/>
		<ellipse opacity="0.9344" fill="#C1C1C1" enable-background="new    " cx="176" cy="419.7" rx="97.7" ry="10.2"/>
		<ellipse opacity="0.9333" fill="#C0C0C0" enable-background="new    " cx="176" cy="419.7" rx="97.4" ry="10.2"/>
		<ellipse opacity="0.9323" fill="#BFBFBF" enable-background="new    " cx="176" cy="419.7" rx="97.2" ry="10"/>
		<ellipse opacity="0.9312" fill="#BEBEBE" enable-background="new    " cx="176" cy="419.7" rx="96.9" ry="10"/>
		<ellipse opacity="0.9302" fill="#BDBDBD" enable-background="new    " cx="176" cy="419.7" rx="96.6" ry="10"/>
		<ellipse opacity="0.9291" fill="#BCBCBC" enable-background="new    " cx="176" cy="419.7" rx="96.4" ry="10"/>
		<ellipse opacity="0.928" fill="#BBBBBB" enable-background="new    " cx="176" cy="419.7" rx="96.1" ry="10"/>
		<ellipse opacity="0.927" fill="#BABABA" enable-background="new    " cx="176" cy="419.7" rx="95.8" ry="9.9"/>
		<ellipse opacity="0.9259" fill="#B9B9B9" enable-background="new    " cx="176" cy="419.7" rx="95.6" ry="9.9"/>
		<ellipse opacity="0.9249" fill="#B8B8B8" enable-background="new    " cx="176" cy="419.7" rx="95.3" ry="9.9"/>
		<ellipse opacity="0.9238" fill="#B7B7B7" enable-background="new    " cx="176" cy="419.7" rx="95.1" ry="9.9"/>
		<ellipse opacity="0.9228" fill="#B6B6B6" enable-background="new    " cx="176" cy="419.7" rx="94.9" ry="9.9"/>
		<ellipse opacity="0.9217" fill="#B5B5B5" enable-background="new    " cx="176" cy="419.7" rx="94.6" ry="9.7"/>
		<ellipse opacity="0.9206" fill="#B4B4B4" enable-background="new    " cx="176" cy="419.7" rx="94.3" ry="9.7"/>
		<ellipse opacity="0.9196" fill="#B3B3B3" enable-background="new    " cx="176" cy="419.7" rx="94.1" ry="9.7"/>
		<ellipse opacity="0.9185" fill="#B2B2B2" enable-background="new    " cx="176" cy="419.7" rx="93.8" ry="9.7"/>
		<ellipse opacity="0.9175" fill="#B1B1B1" enable-background="new    " cx="176" cy="419.7" rx="93.5" ry="9.7"/>
		<path opacity="0.9164" fill="#B0B0B0" enable-background="new    " d="M269.3,419.7c0,5.4-41.8,9.6-93.3,9.6s-93.3-4.3-93.3-9.6
			c0-5.4,41.7-9.6,93.3-9.6C227.6,409.9,269.3,414.3,269.3,419.7z"/>
		<ellipse opacity="0.9153" fill="#AFAFAF" enable-background="new    " cx="176" cy="419.7" rx="93" ry="9.6"/>
		<ellipse opacity="0.9143" fill="#AEAEAE" enable-background="new    " cx="176" cy="419.7" rx="92.7" ry="9.6"/>
		<ellipse opacity="0.9132" fill="#ADADAD" enable-background="new    " cx="176" cy="419.7" rx="92.4" ry="9.6"/>
		<path opacity="0.9122" fill="#ACACAC" enable-background="new    " d="M268.3,419.7c0,5.3-41.3,9.6-92.3,9.6
			c-51,0-92.2-4.5-92.2-9.6c0-5.1,41.3-9.6,92.3-9.6C227.2,410.1,268.3,414.3,268.3,419.7z"/>
		<path opacity="0.9111" fill="#ABABAB" enable-background="new    " d="M268,419.7c0,5.3-41.1,9.5-92,9.5c-50.8,0-92-4.2-92-9.5
			s41.1-9.5,92-9.5C226.9,410.2,268,414.4,268,419.7z"/>
		<ellipse opacity="0.9101" fill="#AAAAAA" enable-background="new    " cx="176" cy="419.7" rx="91.8" ry="9.5"/>
		<ellipse opacity="0.909" fill="#A9A9A9" enable-background="new    " cx="176" cy="419.7" rx="91.5" ry="9.5"/>
		<ellipse opacity="0.9079" fill="#A8A8A8" enable-background="new    " cx="176" cy="419.7" rx="91.2" ry="9.5"/>
		<ellipse opacity="0.9069" fill="#A7A7A7" enable-background="new    " cx="176" cy="419.7" rx="90.9" ry="9.5"/>
		<ellipse opacity="0.9058" fill="#A6A6A6" enable-background="new    " cx="176" cy="419.7" rx="90.7" ry="9.3"/>
		<ellipse opacity="0.9048" fill="#A5A5A5" enable-background="new    " cx="176" cy="419.7" rx="90.4" ry="9.3"/>
		<ellipse opacity="0.9037" fill="#A4A4A4" enable-background="new    " cx="176" cy="419.7" rx="90.1" ry="9.3"/>
		<ellipse opacity="0.9026" fill="#A3A3A3" enable-background="new    " cx="176" cy="419.7" rx="89.9" ry="9.3"/>
		<path opacity="0.9016" fill="#A2A2A2" enable-background="new    " d="M265.7,419.7c0,5.1-40.2,9.3-89.6,9.3
			c-49.5,0-89.6-4.2-89.6-9.3c0-5.1,40.2-9.3,89.6-9.3C225.5,410.4,265.7,414.5,265.7,419.7z"/>
		<path opacity="0.9005" fill="#A1A1A1" enable-background="new    " d="M265.5,419.7c0,5.1-40.1,9.2-89.5,9.2
			c-49.4,0-89.5-4.2-89.5-9.2c0-5,40.1-9.3,89.5-9.3C225.4,410.4,265.5,414.5,265.5,419.7z"/>
		<ellipse opacity="0.8995" fill="#A0A0A0" enable-background="new    " cx="176" cy="419.7" rx="89.2" ry="9.2"/>
		<ellipse opacity="0.8984" fill="#9F9F9F" enable-background="new    " cx="176" cy="419.7" rx="88.9" ry="9.2"/>
		<ellipse opacity="0.8974" fill="#9E9E9E" enable-background="new    " cx="176" cy="419.7" rx="88.6" ry="9.2"/>
		<ellipse opacity="0.8963" fill="#9D9D9D" enable-background="new    " cx="176" cy="419.7" rx="88.4" ry="9.2"/>
		<ellipse opacity="0.8952" fill="#9C9C9C" enable-background="new    " cx="176" cy="419.7" rx="88.1" ry="9.2"/>
		<ellipse opacity="0.8942" fill="#9B9B9B" enable-background="new    " cx="176" cy="419.7" rx="87.8" ry="9.1"/>
		<ellipse opacity="0.8931" fill="#9A9A9A" enable-background="new    " cx="176" cy="419.7" rx="87.6" ry="9.1"/>
		<ellipse opacity="0.8921" fill="#999999" enable-background="new    " cx="176" cy="419.7" rx="87.3" ry="9.1"/>
		<ellipse opacity="0.891" fill="#989898" enable-background="new    " cx="176" cy="419.7" rx="87" ry="9.1"/>
		<path opacity="0.8899" fill="#979797" enable-background="new    " d="M262.9,419.7c0,5-38.8,8.9-86.8,8.9
			c-47.9,0-86.8-4.1-86.8-8.9c0-5,38.8-8.9,86.8-8.9C223.9,410.6,262.9,414.7,262.9,419.7z"/>
		<ellipse opacity="0.8889" fill="#969696" enable-background="new    " cx="176" cy="419.7" rx="86.5" ry="8.9"/>
		<ellipse opacity="0.8878" fill="#959595" enable-background="new    " cx="176" cy="419.7" rx="86.3" ry="8.9"/>
		<path opacity="0.8868" fill="#949494" enable-background="new    " d="M262.1,419.7c0,4.9-38.6,8.9-86.1,8.9
			c-47.5,0-86.1-4.1-86.1-8.9s38.6-8.9,86.1-8.9C223.5,410.8,262.1,414.7,262.1,419.7z"/>
		<path opacity="0.8857" fill="#939393" enable-background="new    " d="M261.8,419.7c0,4.9-38.4,8.9-85.8,8.9s-85.8-3.9-85.8-8.9
			c0-5,38.4-8.9,85.8-8.9S261.8,414.7,261.8,419.7z"/>
		<path opacity="0.8847" fill="#929292" enable-background="new    " d="M261.5,419.7c0,4.9-38.3,8.8-85.5,8.8s-85.5-3.9-85.5-8.8
			s38.3-8.8,85.5-8.8S261.5,414.7,261.5,419.7z"/>
		<ellipse opacity="0.8836" fill="#919191" enable-background="new    " cx="176" cy="419.7" rx="85.3" ry="8.8"/>
		<ellipse opacity="0.8825" fill="#909090" enable-background="new    " cx="176" cy="419.7" rx="85" ry="8.8"/>
		<ellipse opacity="0.8815" fill="#8F8F8F" enable-background="new    " cx="176" cy="419.7" rx="84.7" ry="8.8"/>
		<ellipse opacity="0.8804" fill="#8E8E8E" enable-background="new    " cx="176" cy="419.7" rx="84.5" ry="8.8"/>
		<path opacity="0.8794" fill="#8D8D8D" enable-background="new    " d="M260.2,419.7c0,4.9-37.8,8.8-84.2,8.8s-84.2-3.9-84.2-8.8
			s37.8-8.8,84.2-8.8C222.6,410.9,260.2,414.8,260.2,419.7z"/>
		<ellipse opacity="0.8783" fill="#8C8C8C" enable-background="new    " cx="176" cy="419.7" rx="83.9" ry="8.7"/>
		<ellipse opacity="0.8772" fill="#8B8B8B" enable-background="new    " cx="176" cy="419.7" rx="83.6" ry="8.7"/>
		<ellipse opacity="0.8762" fill="#8A8A8A" enable-background="new    " cx="176" cy="419.7" rx="83.5" ry="8.7"/>
		<path opacity="0.8751" fill="#898989" enable-background="new    " d="M259.2,419.7c0,4.7-37.2,8.7-83.2,8.7
			c-45.9,0-83.2-3.9-83.2-8.7c0-4.7,37.2-8.7,83.2-8.7S259.2,414.8,259.2,419.7z"/>
		<path opacity="0.8741" fill="#888888" enable-background="new    " d="M259,419.7c0,4.7-37.1,8.7-83,8.7s-83-3.8-83-8.7
			s37.1-8.7,83-8.7C221.7,411,259,414.8,259,419.7z"/>
		<path opacity="0.873" fill="#878787" enable-background="new    " d="M258.7,419.7c0,4.7-37.1,8.5-82.7,8.5
			c-45.6,0-82.7-3.8-82.7-8.5c0-4.7,36.9-8.5,82.7-8.5C221.6,411,258.7,415,258.7,419.7z"/>
		<ellipse opacity="0.872" fill="#868686" enable-background="new    " cx="176" cy="419.7" rx="82.4" ry="8.5"/>
		<ellipse opacity="0.8709" fill="#858585" enable-background="new    " cx="176" cy="419.7" rx="82.2" ry="8.5"/>
		<ellipse opacity="0.8698" fill="#848484" enable-background="new    " cx="176" cy="419.7" rx="81.9" ry="8.5"/>
		<ellipse opacity="0.8688" fill="#838383" enable-background="new    " cx="176" cy="419.7" rx="81.6" ry="8.5"/>
		<path opacity="0.8677" fill="#828282" enable-background="new    " d="M257.3,419.7c0,4.6-36.4,8.4-81.3,8.4
			c-44.9,0-81.3-3.8-81.3-8.4c0-4.6,36.4-8.4,81.3-8.4C220.9,411.2,257.3,415,257.3,419.7z"/>
		<ellipse opacity="0.8667" fill="#818181" enable-background="new    " cx="176" cy="419.7" rx="81.1" ry="8.4"/>
		<ellipse opacity="0.8656" fill="#808080" enable-background="new    " cx="176" cy="419.7" rx="80.8" ry="8.4"/>
		<path opacity="0.8645" fill="#7F7F7F" enable-background="new    " d="M256.7,419.7c0,4.6-36.1,8.4-80.7,8.4
			c-44.5,0-80.7-3.8-80.7-8.4c0-4.6,36.1-8.4,80.7-8.4C220.5,411.3,256.7,415,256.7,419.7z"/>
		<path opacity="0.8635" fill="#7E7E7E" enable-background="new    " d="M256.4,419.7c0,4.6-36,8.3-80.4,8.3
			c-44.4,0-80.4-3.8-80.4-8.3s36-8.3,80.4-8.3C220.4,411.3,256.4,415.1,256.4,419.7z"/>
		<path opacity="0.8624" fill="#7D7D7D" enable-background="new    " d="M256.1,419.7c0,4.6-35.9,8.3-80.1,8.3
			c-44.3,0-80.1-3.7-80.1-8.3c0-4.6,35.9-8.3,80.1-8.3C220.3,411.3,256.1,415.1,256.1,419.7z"/>
		<ellipse opacity="0.8614" fill="#7C7C7C" enable-background="new    " cx="176" cy="419.7" rx="79.9" ry="8.3"/>
		<path opacity="0.8603" fill="#7B7B7B" enable-background="new    " d="M255.6,419.7c0,4.6-35.6,8.3-79.6,8.3
			c-44,0-79.6-3.7-79.6-8.3c0-4.6,35.6-8.3,79.6-8.3C220,411.3,255.6,415.1,255.6,419.7z"/>
		<path opacity="0.8593" fill="#7A7A7A" enable-background="new    " d="M255.3,419.7c0,4.6-35.5,8.3-79.3,8.3s-79.3-3.7-79.3-8.3
			c0-4.6,35.5-8.3,79.3-8.3S255.3,415.1,255.3,419.7z"/>
		<path opacity="0.8582" fill="#797979" enable-background="new    " d="M255,419.7c0,4.5-35.3,8.1-79,8.1s-79-3.7-79-8.1
			c0-4.6,35.5-8.1,79-8.1C219.7,411.4,255,415.1,255,419.7z"/>
		<path opacity="0.8571" fill="#787878" enable-background="new    " d="M254.8,419.7c0,4.5-35.3,8.1-78.8,8.1s-78.8-3.7-78.8-8.1
			s35.3-8.1,78.8-8.1S254.8,415.1,254.8,419.7z"/>
		<ellipse opacity="0.8561" fill="#777777" enable-background="new    " cx="176" cy="419.7" rx="78.5" ry="8.1"/>
		<ellipse opacity="0.855" fill="#767676" enable-background="new    " cx="176" cy="419.7" rx="78.2" ry="8.1"/>
		<ellipse opacity="0.854" fill="#757575" enable-background="new    " cx="176" cy="419.7" rx="78" ry="8.1"/>
		<path opacity="0.8529" fill="#747474" enable-background="new    " d="M253.8,419.7c0,4.5-34.8,8.1-77.7,8.1
			c-42.9,0-77.7-3.7-77.7-8.1s34.8-8.1,77.7-8.1C219,411.6,253.8,415.2,253.8,419.7z"/>
		<path opacity="0.8519" fill="#737373" enable-background="new    " d="M253.6,419.7c0,4.5-34.6,8-77.6,8c-42.9,0-77.5-3.7-77.5-8
			c0-4.5,34.6-8,77.5-8C218.8,411.6,253.6,415.2,253.6,419.7z"/>
		<ellipse opacity="0.8508" fill="#727272" enable-background="new    " cx="176" cy="419.7" rx="77.3" ry="8"/>
		<path opacity="0.8497" fill="#717171" enable-background="new    " d="M253,419.7c0,4.5-34.5,8-77,8s-77-3.5-77-8s34.5-8,77-8
			S253,415.2,253,419.7z"/>
		<path opacity="0.8487" fill="#707070" enable-background="new    " d="M252.7,419.7c0,4.5-34.4,8-76.7,8s-76.7-3.5-76.7-8
			s34.4-8,76.7-8S252.7,415.2,252.7,419.7z"/>
		<path opacity="0.8476" fill="#6F6F6F" enable-background="new    " d="M252.5,419.7c0,4.3-34.2,8-76.5,8s-76.5-3.5-76.5-8
			c0-4.3,34.2-8,76.5-8S252.5,415.2,252.5,419.7z"/>
		<path opacity="0.8466" fill="#6E6E6E" enable-background="new    " d="M252.2,419.7c0,4.3-34.1,7.9-76.2,7.9
			c-42.1,0-76.2-3.5-76.2-7.9s34.1-7.8,76.2-7.8C218.1,411.7,252.2,415.2,252.2,419.7z"/>
		<ellipse opacity="0.8455" fill="#6D6D6D" enable-background="new    " cx="176" cy="419.7" rx="75.9" ry="7.9"/>
		<ellipse opacity="0.8444" fill="#6C6C6C" enable-background="new    " cx="176" cy="419.7" rx="75.7" ry="7.9"/>
		<ellipse opacity="0.8434" fill="#6B6B6B" enable-background="new    " cx="176" cy="419.7" rx="75.4" ry="7.9"/>
		<path opacity="0.8423" fill="#6A6A6A" enable-background="new    " d="M251.1,419.7c0,4.3-33.7,7.9-75.1,7.9
			c-41.4,0-75.1-3.5-75.1-7.9s33.7-7.8,75.1-7.8C217.5,411.8,251.1,415.4,251.1,419.7z"/>
		<path opacity="0.8413" fill="#696969" enable-background="new    " d="M251,419.7c0,4.3-33.6,7.7-74.8,7.7
			c-41.3,0-74.8-3.5-74.8-7.7c0-4.3,33.6-7.7,74.8-7.7C217.4,411.8,251,415.4,251,419.7z"/>
		<ellipse opacity="0.8402" fill="#686868" enable-background="new    " cx="176" cy="419.7" rx="74.7" ry="7.7"/>
		<ellipse opacity="0.8392" fill="#676767" enable-background="new    " cx="176" cy="419.7" rx="74.4" ry="7.7"/>
		<path opacity="0.8381" fill="#666666" enable-background="new    " d="M250.2,419.7c0,4.2-33.2,7.7-74.2,7.7s-74.2-3.4-74.2-7.7
			c0-4.2,33.2-7.7,74.2-7.7S250.2,415.4,250.2,419.7z"/>
		<path opacity="0.837" fill="#656565" enable-background="new    " d="M249.9,419.7c0,4.2-33,7.7-73.9,7.7s-73.9-3.4-73.9-7.7
			s33-7.7,73.9-7.7S249.9,415.4,249.9,419.7z"/>
		<path opacity="0.836" fill="#646464" enable-background="new    " d="M249.6,419.7c0,4.2-33,7.6-73.6,7.6
			c-40.6,0-73.6-3.4-73.6-7.6s32.9-7.6,73.6-7.6C216.7,412.1,249.6,415.4,249.6,419.7z"/>
		<ellipse opacity="0.8349" fill="#636363" enable-background="new    " cx="176" cy="419.7" rx="73.4" ry="7.6"/>
		<path opacity="0.8339" fill="#626262" enable-background="new    " d="M249.1,419.7c0,4.2-32.8,7.6-73.1,7.6
			c-40.3,0-73.1-3.4-73.1-7.6s32.8-7.6,73.1-7.6C216.3,412.1,249.1,415.4,249.1,419.7z"/>
		<path opacity="0.8328" fill="#616161" enable-background="new    " d="M248.8,419.7c0,4.2-32.6,7.6-72.8,7.6
			c-40.2,0-72.8-3.4-72.8-7.6s32.6-7.6,72.8-7.6C216.2,412.1,248.8,415.5,248.8,419.7z"/>
		<path opacity="0.8317" fill="#606060" enable-background="new    " d="M248.5,419.7c0,4.2-32.5,7.6-72.5,7.6s-72.5-3.4-72.5-7.6
			s32.5-7.6,72.5-7.6S248.5,415.5,248.5,419.7z"/>
		<path opacity="0.8307" fill="#5F5F5F" enable-background="new    " d="M248.3,419.7c0,4.2-32.3,7.4-72.3,7.4
			c-39.9,0-72.3-3.4-72.3-7.4c0-4.1,32.3-7.4,72.3-7.4C215.9,412.1,248.3,415.5,248.3,419.7z"/>
		<ellipse opacity="0.8296" fill="#5E5E5E" enable-background="new    " cx="176" cy="419.7" rx="72" ry="7.4"/>
		<ellipse opacity="0.8286" fill="#5D5D5D" enable-background="new    " cx="176" cy="419.7" rx="71.9" ry="7.4"/>
		<path opacity="0.8275" fill="#5C5C5C" enable-background="new    " d="M247.6,419.7c0,4.1-32.1,7.4-71.6,7.4
			c-39.5,0-71.6-3.4-71.6-7.4c0-4.1,32.1-7.4,71.6-7.4C215.5,412.2,247.6,415.5,247.6,419.7z"/>
		<path opacity="0.8265" fill="#5B5B5B" enable-background="new    " d="M247.3,419.7c0,4.1-31.9,7.4-71.3,7.4
			c-39.4,0-71.3-3.2-71.3-7.4s31.9-7.4,71.3-7.4C215.4,412.2,247.3,415.5,247.3,419.7z"/>
		<path opacity="0.8254" fill="#5A5A5A" enable-background="new    " d="M247.1,419.7c0,4.1-31.8,7.3-71.1,7.3
			c-39.2,0-71.1-3.2-71.1-7.3c0-4.1,31.8-7.3,71.1-7.3C215.2,412.2,247.1,415.5,247.1,419.7z"/>
		<path opacity="0.8243" fill="#595959" enable-background="new    " d="M246.8,419.7c0,4.1-31.7,7.3-70.8,7.3
			c-39.1,0-70.8-3.2-70.8-7.3c0-4.1,31.7-7.3,70.8-7.3C215.1,412.4,246.8,415.6,246.8,419.7z"/>
		<path opacity="0.8233" fill="#585858" enable-background="new    " d="M246.5,419.7c0,4.1-31.5,7.3-70.5,7.3
			c-39,0-70.5-3.2-70.5-7.3c0-4.1,31.5-7.3,70.5-7.3C215,412.2,246.5,415.6,246.5,419.7z"/>
		<path opacity="0.8222" fill="#575757" enable-background="new    " d="M246.2,419.7c0,4.1-31.4,7.3-70.2,7.3s-70.2-3.2-70.2-7.3
			c0-4.1,31.4-7.3,70.2-7.3S246.2,415.6,246.2,419.7z"/>
		<path opacity="0.8212" fill="#565656" enable-background="new    " d="M246,419.7c0,4.1-31.4,7.3-70,7.3s-70-3.2-70-7.3
			c0-4.1,31.4-7.3,70-7.3C214.7,412.4,246,415.6,246,419.7z"/>
		<path opacity="0.8201" fill="#555555" enable-background="new    " d="M245.7,419.7c0,4.1-31.3,7.2-69.7,7.2s-69.7-3.2-69.7-7.2
			c0-4.1,31.3-7.2,69.7-7.2C214.6,412.4,245.7,415.6,245.7,419.7z"/>
		<path opacity="0.819" fill="#545454" enable-background="new    " d="M245.4,419.7c0,3.9-31.1,7.2-69.4,7.2
			c-38.3,0-69.4-3.2-69.4-7.2s31.1-7.2,69.4-7.2C214.4,412.4,245.4,415.6,245.4,419.7z"/>
		<ellipse opacity="0.818" fill="#535353" enable-background="new    " cx="176" cy="419.7" rx="69.2" ry="7.2"/>
		<ellipse opacity="0.8169" fill="#525252" enable-background="new    " cx="176" cy="419.7" rx="68.9" ry="7.2"/>
		<path opacity="0.8159" fill="#515151" enable-background="new    " d="M244.8,419.7c0,3.9-30.7,7.2-68.8,7.2
			c-37.9,0-68.8-3.2-68.8-7.2s30.7-7.2,68.8-7.2C213.9,412.5,244.8,415.6,244.8,419.7z"/>
		<path opacity="0.8148" fill="#505050" enable-background="new    " d="M244.5,419.7c0,3.9-30.6,7-68.5,7c-37.9,0-68.5-3.1-68.5-7
			s30.6-7,68.5-7C213.8,412.5,244.5,415.8,244.5,419.7z"/>
		<path opacity="0.8138" fill="#4F4F4F" enable-background="new    " d="M244.2,419.7c0,3.9-30.6,7-68.2,7c-37.6,0-68.2-3.1-68.2-7
			s30.6-7,68.2-7C213.6,412.5,244.2,415.8,244.2,419.7z"/>
		<path opacity="0.8127" fill="#4E4E4E" enable-background="new    " d="M243.9,419.7c0,3.9-30.5,7-67.9,7s-67.9-3.1-67.9-7
			s30.5-7,67.9-7C213.5,412.5,243.9,415.8,243.9,419.7z"/>
		<path opacity="0.8116" fill="#4D4D4D" enable-background="new    " d="M243.7,419.7c0,3.9-30.3,7-67.7,7s-67.7-3.1-67.7-7
			s30.3-7,67.7-7C213.4,412.7,243.7,415.8,243.7,419.7z"/>
		<path opacity="0.8106" fill="#4C4C4C" enable-background="new    " d="M243.4,419.7c0,3.9-30.2,7-67.4,7s-67.4-3.1-67.4-7
			s30.2-7,67.4-7S243.4,415.8,243.4,419.7z"/>
		<path opacity="0.8095" fill="#4B4B4B" enable-background="new    " d="M243.1,419.7c0,3.8-30,6.9-67.1,6.9s-67.1-3.1-67.1-6.9
			c0-3.8,30-6.9,67.1-6.9C213.1,412.7,243.1,415.8,243.1,419.7z"/>
		<path opacity="0.8085" fill="#4A4A4A" enable-background="new    " d="M242.9,419.7c0,3.8-29.9,6.9-66.9,6.9
			c-36.9,0-66.9-3.1-66.9-6.9c0-3.8,29.9-6.9,66.9-6.9C212.9,412.7,242.9,415.8,242.9,419.7z"/>
		<path opacity="0.8074" fill="#494949" enable-background="new    " d="M242.6,419.7c0,3.8-29.8,6.9-66.6,6.9
			c-36.8,0-66.6-3.1-66.6-6.9c0-3.8,29.8-6.9,66.6-6.9C212.8,412.7,242.6,415.8,242.6,419.7z"/>
		<path opacity="0.8063" fill="#484848" enable-background="new    " d="M242.3,419.7c0,3.8-29.8,6.9-66.3,6.9
			c-36.7,0-66.3-3.1-66.3-6.9c0-3.8,29.8-6.9,66.3-6.9C212.7,412.8,242.3,415.8,242.3,419.7z"/>
		<path opacity="0.8053" fill="#474747" enable-background="new    " d="M242.2,419.7c0,3.8-29.6,6.9-66,6.9c-36.4,0-66-3.1-66-6.9
			c0-3.8,29.6-6.9,66-6.9C212.5,412.8,242.2,415.9,242.2,419.7z"/>
		<path opacity="0.8042" fill="#464646" enable-background="new    " d="M241.9,419.7c0,3.8-29.5,6.8-65.9,6.8
			c-36.4,0-65.9-3.1-65.9-6.8c0-3.8,29.5-6.8,65.9-6.8C212.4,412.8,241.9,415.9,241.9,419.7z"/>
		<path opacity="0.8032" fill="#454545" enable-background="new    " d="M241.6,419.7c0,3.8-29.4,6.8-65.6,6.8
			c-36.3,0-65.6-3.1-65.6-6.8c0-3.8,29.4-6.8,65.6-6.8C212.3,412.8,241.6,415.9,241.6,419.7z"/>
		<ellipse opacity="0.8021" fill="#444444" enable-background="new    " cx="176" cy="419.7" rx="65.4" ry="6.8"/>
		<path opacity="0.8011" fill="#434343" enable-background="new    " d="M241.1,419.7c0,3.8-29.1,6.8-65.1,6.8
			c-36,0-65.1-3-65.1-6.8c0-3.8,29.1-6.8,65.1-6.8C212,412.9,241.1,415.9,241.1,419.7z"/>
		<path opacity="0.8" fill="#424242" enable-background="new    " d="M240.8,419.7c0,3.7-29,6.8-64.8,6.8s-64.8-3-64.8-6.8
			c0-3.8,29-6.8,64.8-6.8S240.8,415.9,240.8,419.7z"/>
	</g>
	<path fill="#424242" d="M140.8,298.3l19.8,102l-13.8-0.7l-8.5-52c-4.5-21.4-23.1-58.2-23.1-58.2L140.8,298.3z"/>
	<path fill="#424242" d="M173.4,299.5l14.8,104.9l13-4.7l-6.9-52.1c-1.9-21.8,0-53.7,0-53.7L173.4,299.5z"/>
	
		<linearGradient id="SVGID_2_" gradientUnits="userSpaceOnUse" x1="-46.0859" y1="450.0791" x2="3.6226" y2="450.0791" gradientTransform="matrix(2.2255 0 0 2.2255 205.6895 -791.0637)">
		<stop  offset="7.690000e-002" style="stop-color:#BDBDBD"/>
		<stop  offset="0.1295" style="stop-color:#C2C2C2"/>
		<stop  offset="0.3696" style="stop-color:#D7D7D7"/>
		<stop  offset="0.5275" style="stop-color:#DFDFDF"/>
		<stop  offset="1" style="stop-color:#CDCDCD"/>
	</linearGradient>
	<path fill="url(#SVGID_2_)" d="M107.5,148.3c-1.8,18.8-4.9,109.5-4.3,110.4l97.4,14.1c-0.1-3.7,14.6-111.9,13-118.2l-50.8,14.2
		L107.5,148.3z"/>
	<g>
		<polygon opacity="0.12" enable-background="new    " points="129.2,86.8 158.5,87.8 158.7,79.9 127.5,80.9 		"/>
		<polygon fill="#5F2900" points="130.3,84.6 159.6,85.7 159.6,77.7 128.5,78.8 		"/>
		<polygon opacity="0.12" enable-background="new    " points="198.5,96.1 172.1,87.7 174.4,80.7 201.7,91.5 		"/>
		<polygon fill="#5F2900" points="197.1,93.9 170.9,85.5 173,78.5 200.4,89.3 		"/>
	</g>
	<path fill="#424242" d="M103.2,258.8c0,0-0.3,24.4,7.9,31.3c8.3,6.9,55.1,25,82.2,6c5.8-5,8.3-17.5,7.6-24.9L103.2,258.8z"/>
	<path opacity="0.2" enable-background="new    " d="M151.5,100.4c-0.4,4.2-3,7.3-5.5,7c-2.6-0.3-4.3-3.9-3.8-8c0.4-4.2,3-7.3,5.6-7
		C150.1,92.7,151.9,96.2,151.5,100.4z"/>
	
		<ellipse transform="matrix(-0.994 -0.1093 0.1093 -0.994 343.7216 224.2978)" opacity="0.2" enable-background="new    " cx="178" cy="102.7" rx="4.5" ry="7.6"/>
	<path d="M149.9,98.9c-0.4,3.5-2,6.1-3.7,6c-1.6-0.1-2.7-3.1-2.3-6.6c0.4-3.5,2-6.1,3.7-6C149.2,92.6,150.3,95.6,149.9,98.9z"/>
	<path d="M181.1,101.9c-0.4,3.5-2,6.1-3.7,6c-1.6-0.1-2.6-3.1-2.3-6.6c0.4-3.5,2-6.1,3.7-6C180.5,95.4,181.5,98.4,181.1,101.9z"/>
	<path fill="#5F2900" d="M147.8,397.6l-20.7,6.5c0,0-16.4-2.6-19.9,6.6c-2.3,6.1-2.8,8.3-2.8,8.3c16.2,0,58.3-0.3,58.3-0.3
		c0.3-5.3-1.5-19.6-1.5-19.6L147.8,397.6z"/>
	<path fill="#5F2900" d="M200.9,397.6l20.7,6.5c0,0,16.4-2.6,19.9,6.6c2.2,6.1,2.8,8.3,2.8,8.3c-16.2,0-58.3-0.3-58.3-0.3
		c-0.3-5.3,1.5-19.6,1.5-19.6L200.9,397.6z"/>
	<polygon fill="#E88E47" points="183.7,263.9 189.9,281.2 193.5,288 229.1,275.3 237.4,267.6 227.2,248.5 227.2,248.5 227.2,248.5 
		225.9,246.3 222,246.9 203.9,240.1 203.1,250 	"/>
	<path opacity="0.35" enable-background="new    " d="M227.2,248.5L227.2,248.5L227.2,248.5l-1.2-2.2l-3.9,0.5l-7.3-2.2
		c1.2,3.4,8.5,23,12.6,31.1l1.8-0.7l4.6-4.2c1.2-1.5,2.3-3,3.4-4.3L227.2,248.5z"/>
	
		<linearGradient id="SVGID_3_" gradientUnits="userSpaceOnUse" x1="7085.4541" y1="1117.9561" x2="7111.3984" y2="1117.9561" gradientTransform="matrix(-2.1912 -0.3892 -0.3892 2.1912 16220.8652 535.3575)">
		<stop  offset="7.690000e-002" style="stop-color:#BDBDBD"/>
		<stop  offset="0.1295" style="stop-color:#C2C2C2"/>
		<stop  offset="0.3696" style="stop-color:#D7D7D7"/>
		<stop  offset="0.5275" style="stop-color:#DFDFDF"/>
		<stop  offset="1" style="stop-color:#CDCDCD"/>
	</linearGradient>
	<path fill="url(#SVGID_3_)" d="M212.5,165c-0.1,2.2-0.3,5.4-0.7,9.3c35.1,25.9,24.4,47,5.3,68.5c0,0,9.5,25.9,13.7,33.3
		C296.7,227.1,227.8,175.4,212.5,165z"/>
	<g>
		<path opacity="0.1" enable-background="new    " d="M218.6,76.1c0-9.3-0.7-16.6-1.9-21.4c-5.8-0.3-11.5-0.4-17.3-0.7
			c-0.9,0-1.9-0.1-3-0.1c-19.2-0.8-38.6-1.6-57.8-2.3c-1.9,0-3.7-0.1-5.5-0.3c-6.9-0.3-13.8-0.5-20.7-0.8c-0.9,4.3-1.8,11-2.4,19.4
			c-0.7,8.1-1.1,17.7-1.6,28.4c3-3.5,4.5-13.4,4.9-15.4c1.5-7.6,2.7-15.3,7.8-21.4c10.6-12.3,18-1.2,27.5,5.7
			C158,74,169.4,78,181.1,77.6c5.8-0.3,11.6-1.4,17.1-3.4c3.1-1.1,8.7-5.4,12.2-4.3c4.9,1.5,4.7,10.4,5.1,14.3
			c0.3,2.7-0.8,12.7,1.8,14.3c0.3,0.1,0.4,0.3,0.7,0.4C218.5,90.5,218.8,82.8,218.6,76.1z"/>
		<path fill="#5F2900" d="M227,67.4c0.1,5.4-0.8,11-2.2,16.2c-0.9,3.5-2.8,11.4-6.4,13.1c-1.9-3.5-0.4-8-0.8-11.8
			c-0.3-3.8-0.7-8.4-2.4-11.9c-3.8-7.3-11.2-12.6-8.1-21.5c2.3-6.5,9.3-5.1,13.8-1.2C225.5,54.5,226.9,61.6,227,67.4z"/>
		<path fill="#361700" d="M225.4,57.2c-0.9-2.7-2.3-5-4.5-6.9c-1.2-1.1-2.6-2-4.1-2.6c-4.5,2.7-7.8,8-9.3,13.1
			c1.9,4.2,5.4,7.8,7.7,12.2c1.9,3.5,2.2,8,2.4,11.9c0.3,3.7-1.1,8.1,0.7,11.5c3.9-5.8,3.1-17.6,1.8-22.9c-0.9-3.7-2.6-6.5-0.9-10.3
			C220.3,61,222.7,58.6,225.4,57.2z"/>
		<path fill="#5F2900" d="M127.8,28.7c-2.8,4.6-3.8,10.8-1.8,15.8c2.2,5.4,7.8,6.6,12.7,8.8c5.3,2.4,9.9,5,14.5,8.7
			c4.7,3.8,9.5,7.8,15.4,9.6c8.9,2.7,18.7,2.4,27.7,0.7c22.9-4.5,38-38.6,23.7-58.9c1.6,11.1-5.3,13.1-13.1,18.1
			c8-8.9,1.9-26.4-9.3-31.5c13.9,31.1-22.1,25-39.7,22.9C148,21.8,134,18.8,127.8,28.7z"/>
		<path fill="#5F2900" d="M115.5,35.1c3-0.3,6.2,0.4,8.8,1.8c3.3,1.6,6.6,3.1,9.3,5.4c1.8,1.5,6,6.5,5.3,9.2c-0.5,2-2.4,1.1-4.2,0.9
			c-3.2-0.1-7,0-10,1.4c-10,4.9-12.7,18.1-14.3,28c-0.4,2.2-0.3,5.1-1.9,6.9c-4.3-3.1-4.2-13-5.1-17.9c-1.9-10-2.3-23.8,4.7-32.1
			C110.1,36.4,112.7,35.3,115.5,35.1z"/>
		<path fill="#361700" d="M220,13.7c0.3,1.4,0.3,2.7,0.3,3.8c0.9,3.9,2,7.7,1.5,12.2c-0.8,5.5-2.4,11-5.1,16.1
			c-3.5,6.5-8.3,13.4-15.4,16.4c-8.1,3.4-15.2,5-23.8,3c-8.3-1.9-15-6.2-22.7-9.6c-7.6-3.4-14.9-9.6-23.4-8.9
			c-1.1,0.1-2.3,0.3-3.4,0.7c2.7,3.2,7.2,4.5,11.1,6.2c5.3,2.4,9.9,5,14.5,8.7c4.7,3.8,9.5,7.8,15.4,9.6c8.9,2.7,18.7,2.4,27.7,0.7
			C219.2,67.9,238.8,31.3,220,13.7z"/>
		<path fill="#361700" d="M131.1,46.6c-6.9,0.5-15.6,5.7-18.7,12c-4.5,8.9-2.8,18.7-2.8,28.3c0.5-1.6,0.5-3.7,0.9-5.1
			c1.6-9.7,4.3-23.1,14.3-28c2.8-1.4,6.6-1.5,10-1.4c1.8,0.1,3.7,1.1,4.2-0.9c0.3-1.1-0.3-2.6-1.1-4.1
			C135.7,46.7,133.5,46.4,131.1,46.6z"/>
		<path opacity="0.2" fill="#FFFFFF" enable-background="new    " d="M120.2,43.4c4.2-0.3,6-3.8,1.6-5.7c-4.7-2-9.9,0.8-12.3,4.9
			c-2.4,3.9-1.5,7-2.2,11.1C108.2,46.8,114,43.9,120.2,43.4z"/>
		<path opacity="0.2" fill="#FFFFFF" enable-background="new    " d="M185.9,47.5c-8.9,4.1-15.4,1.5-23.8-2.2
			c-3.7-1.6-7.3-2.7-11-4.5c-7-3.1-14.1-6.6-21.8-3.1c-0.3-4.3,2.3-8.5,5.7-11.1c2.7-2,6.5-3.2,10-3c5.7,0.3,12,4.9,17.3,2.2
			c-3,2.6-6,3.9-9.9,3.5c-3.1-0.3-8.1-2-10,1.4c7-3.5,18.5,6.4,24.5,8.8c9.1,3.8,19.4,7.2,27.7-0.1C191.6,43,190.2,45.6,185.9,47.5z
			"/>
	</g>
	<path fill="#450800" d="M122.7,110.6c0,0,43.3,24.4,78.1,4.3c1.1,21.4-14.9,45.6-42.9,42.8C133.9,155.2,121.5,139.4,122.7,110.6z"
		/>
	<path fill="#B20A00" d="M135.3,148.7c5.7,5,13.3,8,22.6,8.9c9.6,0.9,17.9-1.2,24.5-5.4c-6.5-7.4-8.5-10-22.1-10.2
		C142.4,142.1,140,146.3,135.3,148.7z"/>
	<path fill="#FFFFFF" d="M122.7,110.6c-0.1,2-0.1,4.1,0,6.1c7.8,5,41.5,24.5,77.6,7.2c0.5-3,0.7-6,0.5-8.8
		C166,134.9,122.7,110.6,122.7,110.6z"/>
	<path fill="#C4C4C4" d="M122.7,110.6c-0.1,2-0.1,3.9,0,5.8c4.1-4.6,16.6,5.8,39.7,7.8c22.3,2,35.6-7.8,38-0.7
		c0.4-2.8,0.7-5.8,0.5-8.7C166,134.9,122.7,110.6,122.7,110.6z"/>
	<path fill="#FFFFFF" d="M134.6,148.1c5.8,5.4,13.5,8.7,23.3,9.6c11.4,1.2,20.8-2.2,27.9-7.8C164.4,157.7,139.9,147.1,134.6,148.1z"
		/>
	<g>
		<polygon opacity="0.35" enable-background="new    " points="155.6,240.5 162.1,251.6 180.7,231.6 171.1,183.1 170,169.7 		"/>
		<polygon fill="#5F2900" points="151,175.5 139.2,226.3 157.6,248.4 177.1,228.7 168.4,176.1 		"/>
		<polygon fill="#5F2900" points="149.6,164.4 148.8,175.7 170.2,178.4 170.9,165 		"/>
		<polygon opacity="0.36" enable-background="new    " points="169.2,180.5 168.4,176.1 151,175.5 150.3,178.5 		"/>
		<polygon fill="#5F2900" points="147.8,166.3 147.2,176.8 172.2,179.5 172.9,167.1 		"/>
		<path fill="#873A00" d="M172.9,203.3l-23.8-20.2l-3,12.9l29.1,21.7L172.9,203.3z M143.8,206.8l-1.6,7.2l26.1,23.7l6.6-6.6
			L143.8,206.8z"/>
		<path fill="#FFA81F" d="M168.7,197.2c-0.1,1.8-1.4,3-2.8,3l-20.7-1.1c-1.5-0.1-2.6-1.5-2.6-3.2l0,0c0.1-1.8,1.4-3,2.8-3l20.7,1.1
			C167.6,194.1,168.8,195.4,168.7,197.2L168.7,197.2z"/>
		<path fill="#FFFFFF" d="M154.1,196.5c0,1.1-0.5,1.9-0.9,1.9l-6.4-0.4c-0.4,0-0.8-0.9-0.7-2l0,0c0-1.1,0.5-1.9,0.9-1.9l6.4,0.4
			C153.8,194.5,154.1,195.4,154.1,196.5L154.1,196.5z"/>
	</g>
	<g>
		<path fill="#F69E63" d="M26.2,200.6c0,0,0.4,31.1,48.5,21.5c45.7-9.2,26-67.8-3.9-63.5L26.2,200.6z"/>
		<path opacity="0.1" enable-background="new    " d="M83.4,198.7c-3.9-5.3-26.1-7-47.4-7.4l-9.9,9.3c0,0,1.5,12,13.5,19.4
			c5-0.8,16-3.5,16.2-11.9C71.1,211.9,91.1,209.4,83.4,198.7z"/>
		<g>
			<path fill="#424242" d="M85.1,197.7c0.1,3.4-2.4,6.2-5.8,6.4l-52.9,2c-3.4,0.1-6.2-2.6-6.4-6l-3.8-98.9C16,97.9,18.6,95,22,94.9
				l52.9-2c3.4-0.1,6.2,2.4,6.4,5.8L85.1,197.7z"/>
			<circle fill="#707070" cx="52.3" cy="194.9" r="6.1"/>
			<path fill="#424242" d="M57.2,194.8c-0.1-2.7-2.4-4.9-5.1-4.7c-2.7,0.1-4.7,2.4-4.7,5c0.1,2.7,2.4,4.9,5,4.7
				C55.1,199.8,57.3,197.5,57.2,194.8z"/>
			<path fill="#9AD5F0" d="M81,182.7c0,1.5-1.1,2.8-2.7,2.8l-52.8,1.9c-1.5,0-2.8-1.1-2.8-2.7l-2.8-78c0-1.5,1.1-2.8,2.7-2.8
				l52.8-1.9c1.5,0,2.8,1.1,2.8,2.7L81,182.7z"/>
			<path fill="#707070" d="M53.8,98.4c0,0.8-0.5,1.5-1.4,1.5l-7.3,0.3c-0.8,0-1.5-0.5-1.5-1.4l0,0c0-0.8,0.5-1.5,1.4-1.5l7.3-0.3
				C53.1,97,53.8,97.6,53.8,98.4L53.8,98.4z"/>
			
				<linearGradient id="SVGID_4_" gradientUnits="userSpaceOnUse" x1="-46.3477" y1="265.4824" x2="-37.1903" y2="283.6138" gradientTransform="matrix(2.2239 -8.280000e-002 8.280000e-002 2.2239 113.4981 -493.2875)">
				<stop  offset="0" style="stop-color:#FFFFFF"/>
				<stop  offset="1" style="stop-color:#000000"/>
			</linearGradient>
			<path fill="url(#SVGID_4_)" d="M79,127.5l-0.8-22.7c0-1.5-1.4-2.7-2.8-2.7l-52.8,1.9c-1.5,0-2.7,1.4-2.7,2.8l2,54.7
				C33.5,154.6,58.1,139.7,79,127.5z"/>
		</g>
		<path opacity="0.1" enable-background="new    " d="M49.2,186.6c-0.3-5.8-3.7-11.6-9.1-12.3c13.1-23.8-14.6-21.1-14.6-21.1
			l6.9,34.1L49.2,186.6z"/>
		<path fill="#F69E63" d="M19.3,201l20-5c6.1-2,10-18.7,0.1-20.8c-9.9-2.2-26.9,3.8-30.5,5.1C5.5,181.8-1.4,197.3,19.3,201z"/>
		<path fill="#F69E63" d="M26,218.3c7.6,1.5,18.4,1.2,18.4,1.2c5.7-0.1,13.5-13.1,5.7-17.6c-7.9-4.5-24-4.1-27.3-3.9
			C19.4,198.1,8.7,214.8,26,218.3z"/>
		<path fill="#F69E63" d="M13.6,179.3l19.1-4.9c5.8-1.9,9.5-18.5,0.1-20.7c-9.3-2.2-25.7,3.1-29,4.9C0.5,160.5-6.2,175.5,13.6,179.3
			z"/>
		<path fill="#F69E63" d="M101.7,190c-9.2-30.5,14.2-40.9-10.7-44.5c-20.3-3-13.1,33.8-4.7,40.2"/>
	</g>
</g>
</svg>
