<?xml version="1.0" encoding="utf-8"?>
<!-- Generator: Adobe Illustrator 16.0.0, SVG Export Plug-In . SVG Version: 6.00 Build 0)  -->
<!DOCTYPE svg PUBLIC "-//W3C//DTD SVG 1.1//EN" "http://www.w3.org/Graphics/SVG/1.1/DTD/svg11.dtd">
<svg version="1.1" id="Capa_1" xmlns="http://www.w3.org/2000/svg" xmlns:xlink="http://www.w3.org/1999/xlink" x="0px" y="0px"
	 width="350.2px" height="319.4px" viewBox="0 0 350.2 319.4" enable-background="new 0 0 350.2 319.4" xml:space="preserve">
<g>
	<path fill="#3636CC" d="M190.4,0c-88,0-159.7,71.6-159.7,159.7s71.6,159.7,159.7,159.7c88,0,159.8-71.5,159.8-159.6
		C350.2,71.7,278.5,0,190.4,0z"/>
	<path fill="#25CC25" d="M341.7,203.2c-2.1,0-4.8,1-4.8,1.7c0,0.7-2.9,2-3.9,2.4s-2.8,3.3-3.2,4.2c-0.5,0.9-2.8,0.7-3.6,1
		c-0.8,0.3-2.6,1.8-2.6,2.6c0,0.8-0.5,0.7-1-0.2l-1.1,1.1l-1.4,1.5c-0.8,2.4-3.3,5.5-4.2,5.7s-1,4.5-1,6.2c0,1.7,0.5,3.3,1.5,4.7
		v1.4l0.2,2.8c-0.2,1.6,0.4,3.3,1.6,4.4c0.5,0.3,4.4-0.7,5.9-1l2.1-0.8c7.1-12,12.6-24.8,16.4-38.1C342.3,203,342,203.2,341.7,203.2
		z"/>
	<path d="M78.1,207.2c-0.2,0.5,2.6,3.3,3.7,4.4c1,1,3.4,5.7,3.9,7.3c0.3,1.6,0.3,3.2,0,4.7c0.1,0.8,0.3,1.6,0.6,2.4
		c0.1,0.6-0.9,5.2-0.6,7.1c0.3,2-2.2,7.7-2.1,10.7s1.4,6.7,1.8,6.4c0.5-0.2,0.7,2.6-0.1,3c-0.8,0.3-2,2.6-1.4,2.8
		c0.6,0.1,0,2.4,0.1,3.3c0.1,0.9,0.9,7,1,8.5c0.1,1.5,2.3,5.2,2.8,6.4c0.5,1.3,0.9,3.6,1,3.9l0.3,0.8c0.8,0.3,1.6,0.6,2.3,1
		c0.5,0.3,3.9,0.1,5-0.1c1.1-0.2,0.1-1.3-0.3-1.7c-0.5-0.5-0.9-3.2-1.5-3.4c-0.6-0.2-0.8-3.7-0.3-4.5c0.5-0.8,2.5-2,2.8-2.6
		c0.2-0.7,0.2-3.6-0.2-4c-0.5-0.5,0.1-4-0.2-5.9c-0.3-1.8,3.1-3.4,3.3-4.8c0.2-1.4,4-3,4.8-3.7c0.8-0.7,1.6-4.8,1.1-5.6
		c-0.5-0.8,1.4-1.6,2.2-1.6c0.7-0.1,1.4-0.3,2.1-0.6c0.2,0,1.3-1.8,1.7-2.2c0.5-0.3,1.6-4.7,2.5-5.4c0.9-1.1,1.5-2.5,1.7-4
		c0.4-1.3,1.1-2.6,2-3.7c0.5-0.7,4-2.3,4.7-2.5c0.7-0.2,1.6-6,1.8-8c0.3-1.9,0.8-3.7,1.4-5.5c0-0.7,1.1-1.3,1.4-1.5
		c0.2-0.2,1-2.9,1.6-3.4c0.6-0.6,2.5-3.1,2.5-3.7c0.1-1.1,0.4-2.2,0.7-3.2v-3.6c-0.6-1.7-2.5-3.9-3-3.3c-0.5,0.6-2.6-1.5-3.8-1.9
		c-1.5-0.4-3-0.7-4.6-0.7c-0.7,0-3.1-2-4.2-2.3c-1.1-0.3-3.9-0.8-4.4-1.1c-0.5-0.3-1.1-4.5-3.4-5.9c-2.3-1.4-6.2-4.6-6.7-5.7
		c-0.5-1.2-4.7-3.6-6.1-4.4c-1.4-0.8-3.3-0.9-3.6-0.6c-0.2,0.3-2-2.3-2.8-3c-0.8-0.7-3.4-1.3-3.6-0.7c-0.1,0.6-1.8,0.2-2.2-0.2
		c-0.3-0.5-1.7,0.2-2.4,0.5c-0.7,0.2-2.8,3.4-3.8,4.2c-1,0.8-2.2-0.7-2.9-1c-1.3,0-2.7,0.3-3.8,1c-0.7,0.5-2.2-3.4-1.8-5.3
		c0.3-1.8-1.6-5.4-3.2-5.5c-1.6-0.1-2-3.9-1.7-5.3c0.2-1.4-2.8-2.3-3.6-2.4c-0.8-0.1-2.6,1.8-3,2.9c-0.3,1-7.3-1.3-6.5-5.5
		c0.8-4.2,4.1-8.6,4.9-9.1c0.8-0.5,5.3-0.7,6.3-0.1c0.7,0.4,1.5,0.3,2.1-0.2c1.7-0.1,3.3,0,4.9,0.5c1,0.5,2.6,4.7,3.8,5.2
		c1.1,0.5,1.5-2.8,1.7-3.6c-0.1-1.1-0.4-2.3-0.8-3.3c-0.2-0.6,1.8-5.7,3.6-6.5c1.7-0.8,3.6-3.8,3.3-4.2c-0.2-0.5,1.4-0.9,1.7-1.1
		c0.3-0.2,0-4.4,0.6-5.3c1.5-1.3,3.1-2.4,4.9-3.2c1-0.5,1.7-3,1.4-3.6c-0.3-0.6,2.6-3,4.2-3.6c1.6-0.6,2.9,0.9,2.5,1
		s2.4-1.3,3.3-1.8c0.9-0.6,0-2.6-0.7-3.2c-0.7-0.6-0.2-2.8,0.6-3c0.8-0.2,1.5-2.2,1.3-2.5c-0.2-0.3,3.4,0.3,4.8-0.7
		c1.4-1,0.3,2.4-0.6,3.9c-0.5,0.7-0.3,1.7,0.4,2.2c0.3,0.2,0.6,0.3,1,0.3c0.7,0,1.3,0.5,1.5,1.1c0.1,0.3,1.5-0.5,2.4,0
		c0.9,0.5,1.5-1.3,1.5-2.1c0-0.8-2.2-2.3-2.5-3.3c-0.3-2.5-0.5-5-0.5-7.5c0-1-1.5-2.9-2-2.5c-0.5,0.3-1.4-2.9-2.2-3.6
		c-0.6-0.8-1-1.8-0.9-2.8c0-0.5-2.5-3.2-3.2-4.5c-0.7-1.3-1.5-1-1.6-0.5c-0.1,0.6-1.8,0.7-2.6,0.6s-1.4-3-1.4-4c0-1-3.3-1.3-3.9-2.2
		s-2.8-0.5-3.1-1c-0.7-0.6-1.7-1-2.6-0.9c-0.3,0.2-0.2,8.2-0.6,10.2c-0.3,2.1-2.2,4-2.9,3.9c-0.7-0.1-0.2,1.5,0.1,1.4
		c0.3-0.1-1.3,2.3-1.5,3.9c-0.2,1.6-1.8,0-2.1-1.5c-0.2-1.5-1.8-3.4-2.2-3c-0.3,0.5-1.4-0.6-1.8-0.2c-0.5,0.3-3.4-1.7-4.7-2.4
		c-1.3-0.7-1.8-4.4-2.6-4.7c-0.8-0.3-0.1-0.8-0.1-1.4c0-0.6,2.4-2.8,3.1-3.6c0.7-0.8,3.3-4.2,4.4-5.1c1-0.8,1.8-2.6,1.6-3
		c-0.2-0.3,4.5-1.8,5.7-2.2c1.3-0.3,2.3-3.9,2.5-4.9c0-1.2-0.5-2.3-1.4-3.1c-0.6-0.2,1.7-0.3,2.5,0.1c0.8,0.5,3.1-0.7,4.1-0.2
		l4.2,2.5l-0.2,2.5L93.2,67c-3.7,1.5-4.7,4.1-3.4,4c1.3-0.1,7.1,2.5,8.7,3.7c1.6,1.1,2.2-1.7,2.6-2.6c0.4-1.4,0.4-2.9,0-4.2
		c-0.5-0.6,1.8-0.3,2.5,0.2c0.7,0.6,1.4-0.6,1.8-0.9c0.5-0.3,0.7-2.6,1-3.1c0.3-0.5-1-0.9-1.1-1.6c-0.1-0.7-2.6-1.7-3.4-2.2
		c-0.8-0.6-1-1.7-0.6-2.5c0.3-0.3-0.2-2.6-0.7-3.3c-0.5-0.7-3.1-1.4-4-1.4c-0.9,0-1.8-2.1-2.4-2.4c-1.6-0.4-3.3-0.6-4.9-0.5
		c-0.8,0.2-2.4-2.5-3.9-1.6c-1.5,0.9-3-0.9-3.7-1.4c-0.7-0.5-4.1,3.3-4,5.9c0.1,2.5,1.3,5,1.8,5.2c0.6,0.1-0.1,2.4-0.7,3.1
		c-0.6,0.7-2.1-0.7-1.5-1.3c0.6-0.6-1.5-3.3-2.2-4.4c-0.7-1-2.3-1.5-3.4-2L69.7,56c0.4,1,0.4,2.1,0.2,3.1c-0.5,1.6-1.8,1.8-1.8,1.1
		c-0.4-0.4-0.9-0.6-1.5-0.6c-19.9,23.7-32.3,52.7-35.9,83.5c0.8,0.7,1.4,1.6,1.8,2.6c0.5,1.4,2.9,2.3,3.3,2.6
		c0.5,0.3,0.6-2.6,0.2-3.4c-0.3-0.8,0.6-1.1,0.6-0.7c0,0.5,2.3,3.1,3,4.1c0.7,1,1.5,7,2.3,8.3c0.8,1.3,7.7,4,10,4.5
		c2.1,0.7,4,2,5.5,3.7c0.5,0.7,3.4,1,4,1.4c1,0.9,1.9,1.8,2.8,2.8c0.6,0.5,1,1.2,1.1,2c0,0.3,3.9,1.8,4.9,2.9
		c0.8,0.7,1.9,0.9,2.9,0.3c0.2-0.5,1,2.1,1.5,3c0.5,0.9,0.5,3,0.1,3.3c-0.3,0.3-0.8,4.2-1.5,5c-0.7,0.8-2.1,6.5-1.7,7.7
		c0.6,1.5,1.6,2.8,3,3.8c0.4,0.3,0.5,0.8,0.3,1.3c-0.1,0.1-0.2,0.3-0.4,0.3c-0.6,0-0.3,5.6,1.1,6.4C77,205.8,78.3,206.9,78.1,207.2z
		"/>
	<path d="M96.8,110"/>
	<path d="M85.9,42.6c1.8-0.3,5.1-0.9,5.3-1.4c0.1-0.7,0.1-1.5-0.1-2.2H92c0.7,0,2-3.9,2.6-4.8c0.7-0.9,5-2.3,6.1-2.9
		c1-0.6,3.3-2.8,4.1-3.1c0.8-0.3,2.2-2.3,1.9-2.6c-0.2-0.3,3-2.3,4.1-2.8c1.1-0.5,1.8-1.8,1.4-2c-0.5-0.1-6.9,3.4-13,6.9
		c-6.9,4.8-13.5,10-19.7,15.7L85.9,42.6z"/>
	<path fill="#25CC25" d="M201.5,241.4c2-1.1,5.5-6.3,6.7-7.3c1.1-1,2-4.9,2.2-5.7c0.6-1,1.5-1.8,2.5-2.4c0.6-0.2,2.6-8.7,4.5-10.7
		c1.8-2,3.9-10.9,3.7-14.2c-0.2-3.3,1.1-9.4,1.6-10.9c0.8-1.8,2-3.3,3.3-4.7c2.3-3,4.5-6.1,6.4-9.3c1.4-2.3,2.8-7.3,2.4-8.6
		c-0.3-1.3-3.3-2.1-3.9-1.4c-0.6,0.7-3.4,1-4.4,1c-0.9,0-3-4.9-4.2-5.9c-1.3-0.9-2.4-6.7-3.2-7.7c-1.1-1.5-2.2-3-3.4-4.4
		c-0.7-0.6-0.8-3.6-0.9-4.4c-0.1-0.8,1.3,0.5,1.5,1.7c0.2,1.3,3.6,6,4.6,7.6c1,1.6,3.8,6.8,4.5,8.4c0.7,1.6,6.8,0.8,8.8-0.1
		s4.5-2.5,4.6-3.1c0.1-0.6,3.2-2,4.1-2.6c0.9-0.7,1.6-4.4,2.2-4.9c0.6-0.6-0.5-4.1-1.1-5.2c-0.7-1-3.8-1.8-4.5-1.5s-2-2.3-2.5-3.3
		c-0.6-1-2.9-2.3-3.1-3c0-0.8,0.4-1.6,1-2.1c0.3-0.2,4.8,2.9,6.1,4.5c1.2,1.5,2.2,3.2,3,4.9c0.2,0.6,3.8,0.7,4.6,0.1
		c0.5-0.5,1.3-0.4,1.8,0.1c0.1,0.1,0.1,0.2,0.2,0.2h1l3.9-0.6c1.2,1.1,2,2.5,2.3,4.1c0.4,0.9,1,1.7,1.8,2.2c0.7,0.1,1.3,2.6,1.5,3.3
		c1.1,1.9,2,3.9,2.9,6c0.7,1.9,1.7,3.8,2.8,5.5c0.5,1.3,0.7,2.6,0.8,3.9c0.3,1,1.2,1.7,2.3,1.8c0.8-0.1,2.6-5.6,3.1-7.7
		c0.5-2.1,1.8-3.8,2.2-3.8s0.7-1.1,0.7-1.6c0-0.5,2.2-0.3,2.4-0.9c0.2-0.6,0.8-4.2,1.6-4.8c1.5-1,3-2,4.6-2.8
		c0.9-0.3,3.6,1.8,4.1,2.9c0.6,1.3,0.9,2.6,0.8,4c-0.2,0.3,1.3,2.6,2.6,2.6c1.4,0,1.7,1.7,1.8,2.3c0.1,0.6,1.8,2.4,2.2,3.2
		c0.3,1.2,0.3,2.4,0,3.6c-0.1,1.4-0.1,2.8,0.1,4.2c0.2,0.8,4.4,5.1,6,6.3c1.6,1.3,2.3-2.6,1.5-3.8c-0.8-1.1-3.6-4-4.1-4.8
		c-0.6-0.8-0.7-4.2-0.5-5.2c0.2-0.9,2.4,0.5,3.2,1.1c0.9,0.7,1.6,1.6,2.1,2.6c0,0.5,5.6-2.6,5.9-6c0.2-3.3,2.1-7.2,2.2-8.2
		c0.1-0.9-0.3-1.7-1-2.2c-0.5-0.1,0.8-2.5,2.4-2.5c1.6,0,5.3-4.1,6.2-5.9c0.8-1.2,1.7-2.3,2.9-3.2c0.8-1.8,1.3-3.8,1.6-5.7
		c0.2-1.6-0.9-4.1-1-5.1c-0.5-1.2-1.1-2.3-1.8-3.3c-0.4-1.1-0.6-2.2-0.5-3.3c0.1-0.3,1.6-0.8,1.7-1.3c0.1-0.5,1.7-2.1,1.6-2.9
		c-0.1-0.8,0.9,1,1.7,1.6c0.8,0.6,1.5,4.7,2.4,5c0.9,0.3,4.6-4.2,4.1-7.3c-0.5-3.1,1-7,2-7.3c0.9-0.3,2.4-2.8,3.6-4.5
		c-8.1-23.4-21.6-44.7-39.4-62H298l-1.4-0.2c-2.3-0.5-3.6-2.9-3.2-3.4c0.1-0.3,0.1-0.7,0-1c-1.3-1.1-2.5-2.3-3.9-3.3h-2.9
		c-1.7-0.2-3.3-0.7-4.8-1.5c-0.5-0.5-2.3,0.5-2.4,1.5c-0.1,1-3.2,1.4-3.4,2.2c-0.5,0.6-1.4,0.8-2.2,0.5c-0.2-0.5-3.2,1-4.6,1.1
		c-1.6,0.3-3.2,0.9-4.7,1.6c-1,0.6-1.8,1.4-2.4,2.4c-0.7,0.8-1.6,1.4-2.6,1.8c-0.6,0.2-0.5,2.9,0.2,3.3c0.7,0.5-1.4-0.3-2.4-0.8
		c-1-0.5-2,1.1-2.3,1.7c-0.3,0.6-1.1-0.3-1.1-1.1c0-0.8-2.4-1.4-2.6-0.8c-0.2,0.6-2-0.2-2.6-0.6c-0.7-0.3-3.7,2.8-4.8,3.9
		c-1.2,1.1-6.4,2-7.3,1.6c-0.9-0.3-2,2.3-1.1,2.5H232c-2.7,0.6-5.2,1.6-7.6,2.9c-0.5,0.4-1.3,0.4-1.8-0.2c-0.2-0.2-0.3-0.4-0.3-0.7
		c0-0.7-1.8-1.3-2.3-1.4c-0.5-0.1-1.6,3.6-2.5,4.2c-0.9,0.7-2.1-2.9-4.4-3.6c-2.3-0.7-5.7-2.8-6.8-3c-1-0.2-3-2.3-3.6-3
		c-0.6-0.7-3.4-1-4.4-1s-3.9,1.7-4.7,2.3c-0.8,0.6-2,0.5-2.4,0.8c-0.5,0.3-3.8,3.4-5.1,4.5c-1.3,1-3.6,5.4-4.2,6.5
		c-0.5,0.7-1.3,1.2-2.2,1.3c-0.5,0.4-0.8,1-0.8,1.6c0,0.5-3.8,2.4-4.2,4.1c-0.5,1.7,0.5,5.7,0.5,7.1c0,1.4,1.4,4.3,2.4,4.3
		c1,0,0.6,2.4,0.2,3.1c-0.3,0.7,0.7,1.4,0.6,2c-0.1,0.6-2.6,1.4-3.4,1.6c-1.1,0.7-1.9,1.7-2.3,2.9c-0.1,0.6-2.6,1-3.6,1.8
		c0.2-0.6,0.4-1.2,0.7-1.8c0.3-1,0.1-2.1-0.6-2.9c-0.3-0.3-0.6-4.9-1.3-6c-0.8-1.1-1.7-2.1-2.6-3c-0.3-0.3,0.2-1.5,0.6-2.1
		c0.3-0.6-2.2-0.8-2.8-0.5c-0.6,0.3-1,4.9-1.3,6.2c0,1.3,0.6,2.5,1.6,3.2c0.5,0.1,0.2,2.3-0.6,2.4c-0.8,0.1-1.6,3.3-1.1,4.1
		c0.5,0.8-0.6,2.2-1,2.5c-0.5,0.3,3.2,0.1,4.9,0.1c1-0.1,2,0.2,2.9,0.8c-0.1,0.1-3.2,0.6-3.8,1.3s-2.6,2.1-3,2.6
		c-0.3,0.6,0.7,1.7,1.5,1.7s1.8,3,2.5,3.6c0.5,0.8,0.6,1.8,0.1,2.6c-0.2,0.5-4.5-0.2-6,0.1c-1.5,0.3-3.6,3.7-3.7,4.9
		c0,2,0.1,3.9,0.5,5.9c0.1,1,3.4,1.6,4.1,2.1c0.7,0.5,3.8,0,4.5,0.3c0.7,0.3,2.8-3.2,3.2-4.8c0.5-1.6,3.8-4.6,4.5-5.7
		c0.7-1.1,4.2-0.9,5.2-1.5c0.9-0.6,0.5,2.8,0.8,4.6c0.3,1.8,3.9,1.6,3.3-0.1c-0.6-1.7,0.3-2.4,0.5-1.8c0.1,0.6,3.4,2,4.1,2.9
		c0.7,0.9,0.5,3-0.2,3c-0.7,0-0.8,2.2,0,2.5c0.8,0.3,1.8-2.5,2.6-3c0.8-0.5,1.5-2.2,1.1-2.3c-0.3-0.1,0.7-1.7,1.1-1.1
		c0.5,0.6-1.7-3.3-3.2-4.8c-1.5-1.5-0.3-0.8,2.2,1.4l1.8,2.5c0.3,0.5,0.8,1.8,1.1,2.3l0.5,0.7c0.4,1.3,0.6,2.7,0.7,4
		c0.3,1,1.2,1.7,2.3,1.8c0.5-0.1,1,0.1,1.4,0.5c-0.1,0.1,0.6,1.7,1.4,1.7s1.3-2.2,0.3-2.2c-0.9,0-0.7-3.2-0.8-4.7
		c-0.1-1.5,0.6-2.5,0.9-2.5c0.3,0,0,2.9,0,3.6c0.1,1,0.4,2,0.8,2.9l0.9,0.7l2,1.5c2.9-0.8,6.8-0.1,6.5,0.5c-0.2,0.6,2.1,0.7,2.2-0.2
		s0.2,0.1,0.2,0.7s-1.8,3.2-2.2,4.4c-0.3,1.1-7,0.3-9.9,0.1c-2.9-0.2-7.1,0.7-7.3,1.6c-0.2,0.9-4.7-2-6.8-2.8
		c-2.1-0.8-3.7-3.9-4-4.4c-0.3-0.5,0.3-1.4,0.1-2.1c-0.2-0.7-4.8-0.7-6.2-0.2c-1.4,0.5-8.4,1.3-10,2c-1.6,0.7-4.1,0-4.9-0.1
		s-2.6,2.2-3.6,2.5c-0.9,0.3-2.1,3.7-2.6,7.2l-1.3,2.4l-0.8,1.6c-2.3,1.7-4.8,7.6-5.6,8.8c-0.8,1.3-1.4,9.6-1.4,12.5
		c0,2.9,2.4,8.8,3.2,10.6c0.8,1.7,4.9,5.3,6.4,6.2c1.5,0.9,6.1,1,7.6,1c1.8-0.2,3.3-1.5,3.8-3.2l2.2,0.2h1c0,1.3,3.3,2.2,4.1,2.6
		c1.2,0.3,2.4,0.3,3.6-0.1c0.6-0.1,1.4,5.6,0.9,7.3c-0.5,1.7,1.1,7.6,1.6,9.4c0.5,1.8,2.5,6.7,2.6,8.4c0.1,1.7-1.1,7.6-1.4,9.6
		c-0.2,2.1,2.5,7.7,3.2,9.6c0.7,2.3,1.1,4.7,1.3,7.1c0,0.9,3,6.9,3.7,9.3C191,241.4,199.4,242.6,201.5,241.4z"/>
	<path fill="#25CC25" d="M333,168.9c0.1,0.5,2.1-1,3.2-1.3c1.1-0.2,1.8-3.2,0.9-3.4c-0.9-0.2-2-2.6-2.6-2.9s-1.8,1-1.8,2
		c0,0.9-2.1,1.3-2.5,2.1c-0.5,0.8-0.3,1.3,0,1.3C330.5,166.6,332.8,168.4,333,168.9z"/>
	<path fill="#25CC25" d="M330.7,185.7c0.6-0.2,0-3.2-1.3-3.4c-1.3-0.2-4.5,4-3.9,6.4c0.6,2.4,1.3,2.3,1.6,1.7
		c0.3-0.6,2.3,0.3,2.9,0.5c0.6,0.1,0.6-0.3,0-1.3C329.5,188.7,330.2,186,330.7,185.7z"/>
	<path fill="#25CC25" d="M324.2,182.8c0.1-1,0.3-4.5,0.5-5.2c0.1-0.7-1.8-2.6-2.9-3c-1-0.3-4.1,6.5-6.4,7.8
		c-2.3,1.3-3.1,5.5-2.5,6.4c0.6,0.9,5.4,1.5,6.2,2.2c0.8,0.7,1.7-0.1,2.3-0.2c0.6-0.1,0.3-0.5,0.1-0.6c-0.2-0.1,1.6-2.1,2-3.3
		C323.7,185.5,324,184.2,324.2,182.8z"/>
	<path fill="#25CC25" d="M311.1,194.4c-1.7-0.7-3.9,0.3-4,1c-0.1,0.7,6.9,1.8,9.3,2.4c2.4,0.6,3.8,0.8,3.3,0.5L311.1,194.4z"/>
	<path fill="#25CC25" d="M325.7,147.9c0.6-0.8-0.8-4.5-1.5-3.7c-0.7,0.8-0.1,3,0,3.8C324.3,148.8,325.1,148.7,325.7,147.9z"/>
	<path fill="#25CC25" d="M329.8,155.9c0.5-0.9-0.5-2-2.1-2.3c-1.6-0.3-1.3,4.2-0.6,4.8C327.9,159,329.5,156.8,329.8,155.9z"/>
	<path fill="#25CC25" d="M338,184.6c1.8,1.3,6,0.7,6.1-1.7C342.2,181.6,337.8,181.8,338,184.6z"/>
	<path fill="#25CC25" d="M336.9,127.7c-0.7,0.6-1.1,1.5-0.9,2.4h-0.3c-0.6,0-0.7,2.4,0,2.9c0.7,0.5,2.2-1.8,3-2.4
		c0.8-0.5,1.7-0.8,2.6-0.7c1.1-0.1,2.1-0.4,3.1-0.9c0.4-0.3,0.7-0.6,0.9-1c-0.3-1.7-0.8-3.4-1.2-5.3l-2.1,1.5L336.9,127.7z"/>
	<path d="M294.7,176.8"/>
	<path fill="#25CC25" d="M306.2,187.5c-1.3-2.1-2.9-4-4.8-5.6l-0.7-1.3l-0.8-1.4c-0.7-1.5-3-2.6-3.2-3.1c-0.2-0.5-0.9,1.3-1.7,0.8
		l2.4,1.7c2.1,1.5,6.2,11.9,7.2,12.6S306.9,189,306.2,187.5z"/>
	<path fill="#25CC25" d="M273.2,170.6c-0.6,1.1,3,3.7,3.3,3.1c0-1.4-0.3-2.8-1-4C274.8,169,273.9,169.4,273.2,170.6z"/>
	<path fill="#25CC25" d="M225,226.1c0.1,1.3,2.6,2.2,3.3,2c0.7-0.2,2.8-3.9,3-4.9c0.3-1.3,0.5-2.6,0.6-3.9c0.1-0.7,0.3-1.3,0.6-1.9
		c0.5-0.8,0.9-1.8,1-2.8c0.2-1.4-1.5-7.9-1.5-9.1s-1.3,0.6-1.6,1.7c-0.3,1.1-3.6,3.6-4.4,4.5c-0.8,0.9-1.5,4.2-1.1,4.8
		c0.1,1.2-0.1,2.4-0.6,3.4C223.9,220.6,224.8,225,225,226.1z"/>
	<path d="M107.3,271.6h2.2C109.7,269.2,107.2,269.5,107.3,271.6z"/>
	<path d="M165.9,24.3c-1.3,0.1-2.5-0.2-3.7-0.8c-1.6-0.6-3.3-0.7-4.9-0.3c-1,0.5-0.3-2.5,1-2.8c1.4-0.2,0.2-2.3-1.3-2.3
		s-5.3-0.6-6.1-0.3c-1.1-0.1-2.2-0.3-3.2-0.7c-0.6-0.1-5.2,1.4-7.2,1.3c-2.8-0.1-5.7,0.1-8.5,0.5c-1.1,0.2-2,2.5-1.7,3.3
		c0.2,0.8-5.1,0.8-6.7,0.8s-10.4,1.8-12.7,3.1c-2.3,1.3-4,4.5-3.3,4.5c0.7,0-1.3,1.8-2.5,2.3c-1.3,0.5-4.1,0.6-4.8,1.3
		c-0.7,0.7,0.7,1.1,0.9,1.6c0.2,0.5,1-0.3,1.8,0.1c0.8,0.5,3.3,0.6,4,0.9c0.7,0.3-2.2,0.8-3.4,0.9s-1,2.6,0,3.1
		c1,0.5,3.9,0.7,4.1,0.2c0.2-0.5,3.3,0.5,4.7,0.7c1.4,0.2,2.4,3.6,2.9,4.4c0.5,0.8,0.5,3.3,0.5,4.1c0,0.8,2.4,2.1,2.9,1.6
		c0.5-0.5,0.3,1.1-0.7,1c-1-0.1-0.3,2.8,0.9,3.2c1.3,0.5,0.3,2.2-0.3,2.8c-0.7,0.6-0.3,2.2-1,2.9c-0.7,0.7,2.6,6.4,2.5,9.4
		c-0.1,3,1.8,5.4,2.5,5.4c0.7,0,3.1,0.6,3.4,1.3c0.3,0.7,1.5-0.5,2-0.9c0.5-0.5,1.4-2,2.2-3.2c0.8-1.3,2.4-7.2,2.6-7.9
		c0.2-0.7,3-0.2,3.7-0.6c1-0.7,2-1.4,3-2.2c0.5-0.5,4.5-2.1,5.6-2.9c1.1-0.8,2.9-4.1,3.8-4.9c0.9-0.8-0.5-0.5-1.5-1.2
		c-0.6-0.3-0.8-1-0.4-1.6c0.1-0.1,0.1-0.2,0.2-0.3c0.2-0.3,3.6,0.5,4.6,0.9c1,0.5,3.2-1,2.4-1.6c-0.8-0.6-0.3-0.6,0-0.3
		c0.3,0.2,0.8-2,0.5-2.4c-0.3-0.5,3.2-3.1,2.6-5.6c-0.6-2.5,0.9-5.2,2-5.2c1,0,0.7-2.9-0.6-3.1c-1.3-0.2,0-0.5,0.5-0.9
		c0.5-1.1,0.7-2.3,0.7-3.4c-0.2-0.5,1.8-1,2.2-1.6c1-0.8,2.3-1.5,3.6-1.8C166.1,26.6,166.7,24.3,165.9,24.3z"/>
	<path fill="#25CC25" d="M186.5,26.6c-1.1-0.3-3.4,0.9-3.1,1.6c0.3,0.7-1.8-0.9-3.3-0.1c-1.5,0.8-2,3.4-1.3,3.8
		c0.7,0.3,1.1,2.4,1.1,2.9s2.9,0.1,3.7-0.5c0.8-0.6,0.6,2.1-0.1,2.9c-0.7,0.8,0.2,2.2,1,2.3c0.8,0.1,1.8,2,2.8,2
		c0.9,0,2.3-3.2,2.5-4.4c0.2-1.1,3.1-0.2,4.4,0.1c1.3,0.3,1.7-4.4,0.3-5.2c-1.4-0.8-3.1-0.3-3.7-0.9c-0.6-0.6-1.4-1-2.2-1.1
		C188.3,29.8,187.7,27,186.5,26.6z"/>
	<path fill="#25CC25" d="M197.7,28.9c2,0,3.8-0.7,5.3-2.1c0.6-0.5-6.2-1.8-8.8-2c-2.6-0.1-4.6,0.2-4.6,0.8
		C189.5,26.3,195.5,28.6,197.7,28.9z"/>
	<path d="M156.6,89.9c-0.6-0.2-0.9,2-0.8,2.8c0.1,0.8,2.2,0.8,3.1,0.6c0.8-0.1,1.4-0.8,1.5-1.6c0-0.7-1.3-4-1.7-4
		C158.2,87.6,157.2,90.1,156.6,89.9z"/>
	<path d="M163.2,63.8c-0.5-0.8-3.9-0.7-4.8-0.7c-1.4-0.3-2.8-0.8-4-1.5c-0.6-0.6-0.8,2.2-1.6,2.5c-0.8,0.3,0.5,0.8,0.7,0.6
		c0.2-0.2,0,1.4-0.5,2c-0.5,0.6,2.3,0.9,2.6,1.8c0.4,0.9,1.4,1.4,2.4,1.3c1-0.1,3.1-1.3,3.9-1.4C162.8,68.3,163.7,64.7,163.2,63.8z"
		/>
	<path fill="#25CC25" d="M237.5,43.6c1.1-1.1,6.2-2.9,6.8-4.1c0.4-0.8,0.2-1.8-0.6-2.2c-0.1,0-0.1-0.1-0.2-0.1
		c-0.5,0.1-1,0.4-1.3,0.8c-0.1,0.2-5.9,1.5-7.6,2.4c-1.6,0.7-3.1,1.7-4.5,2.9c-0.7,0.7-2,6.4-2.3,7c-0.3,0.6,1.8,2.9,2.9,3.6
		c0.9,0.3,1.9,0.4,2.9,0.2c0.5-0.1-0.5-4-1-5.4C232,47.3,236.4,44.9,237.5,43.6z"/>
	<path fill="#25CC25" d="M231.4,28.8c1.8,1.8,2.9-0.8,4.9-0.6C236.4,24.3,231.2,25.8,231.4,28.8z"/>
	<path fill="#25CC25" d="M268,29.6c0,0.7,5.2,1.3,6.8,0.9c1.6-0.3-0.3-2.6-2.5-2.5C270.1,28.1,268,28.9,268,29.6z"/>
	<path d="M77,68.6c-0.6,0.5,0,3.1,0.9,3.1s2.8-3.9,4-3.1s2.2,1,2,0.7c-0.2-0.3-3.9-2-4.4-2.3C79.1,66.7,77.6,68.2,77,68.6z"/>
	<path d="M90.5,156.4c0,0.5,2.3,0.3,2.6-0.3c0.3-0.7,0.1-1.3-0.5-1.3C91.7,155,91,155.6,90.5,156.4z"/>
	<path d="M80.2,152.6c1-0.2,0.6,1.5,0.8,2.2c0.2,0.7,2.9,1.1,3.4,1.6c0.6,0.5,1.8-0.8,2.9-0.7c1,0.1-0.3-3.7-2.1-3.6
		c-1.7,0.1-3.1-1.6-3.6-1.8c-1-0.5-2-1.1-3-1.8c-0.6-0.5-5-0.8-6.5-0.8c-1.4,0.1-2.7,0.9-3.4,2.1c-0.2,0.5,2.4,0.9,3.1,0.5
		c0.7-0.5,4.2,0.5,5.1,1.3C77.8,152.3,79,152.7,80.2,152.6z"/>
	<path d="M75.4,156.4c0,0.5,2.3,0.1,2.9,0.1s0.6-0.5,0-0.8C77.7,155.3,75.4,155.9,75.4,156.4z"/>
	<path d="M77,144.4c-0.6-0.2-1,0.7-1,1.1c0,0.4,0.3,0.7,0.7,0.8C77.1,146.4,77.7,144.6,77,144.4z"/>
	<path d="M82,144.8c-0.3-0.5-0.9-0.8-1.5-0.8c-0.3,0-0.5,0.7-0.5,1.7S82.1,145.2,82,144.8z"/>
	<path d="M85.4,150.2c0.9-0.5,1-1.5,0.5-1.5s-1.6-1.6-2.2-1.8c-0.6-0.2-1,1-1,1.5c-0.1,0.4,0.2,0.7,0.6,0.8c0,0,0.1,0,0.1,0
		C83.8,149,84.5,150.6,85.4,150.2z"/>
	<path fill="#25CC25" d="M345,186.7c-0.5,0.2-2.8,0.5-3.1,0.1c-0.3-0.3-0.7,0.9-1.3,1.1c-0.6,0.2-0.2,1.4,0.6,1
		c0.8-0.3,2.8,0.9,4.5,2.1c0.3-1.7,0.7-3.6,0.9-5.4L345,186.7z"/>
	<path fill="#25CC25" d="M78.1,207.2c-0.2,0.5,2.6,3.3,3.7,4.4c1,1,3.4,5.7,3.9,7.3c0.3,1.6,0.3,3.2,0,4.7c0.1,0.8,0.3,1.6,0.6,2.4
		c0.1,0.6-0.9,5.2-0.6,7.1c0.3,2-2.2,7.7-2.1,10.7s1.4,6.7,1.8,6.4c0.5-0.2,0.7,2.6-0.1,3c-0.8,0.3-2,2.6-1.4,2.8
		c0.6,0.1,0,2.4,0.1,3.3c0.1,0.9,0.9,7,1,8.5c0.1,1.5,2.3,5.2,2.8,6.4c0.5,1.3,0.9,3.6,1,3.9l0.3,0.8c0.8,0.3,1.6,0.6,2.3,1
		c0.5,0.3,3.9,0.1,5-0.1c1.1-0.2,0.1-1.3-0.3-1.7c-0.5-0.5-0.9-3.2-1.5-3.4c-0.6-0.2-0.8-3.7-0.3-4.5c0.5-0.8,2.5-2,2.8-2.6
		c0.2-0.7,0.2-3.6-0.2-4c-0.5-0.5,0.1-4-0.2-5.9c-0.3-1.8,3.1-3.4,3.3-4.8c0.2-1.4,4-3,4.8-3.7c0.8-0.7,1.6-4.8,1.1-5.6
		c-0.5-0.8,1.4-1.6,2.2-1.6c0.7-0.1,1.4-0.3,2.1-0.6c0.2,0,1.3-1.8,1.7-2.2c0.5-0.3,1.6-4.7,2.5-5.4c0.9-1.1,1.5-2.5,1.7-4
		c0.4-1.3,1.1-2.6,2-3.7c0.5-0.7,4-2.3,4.7-2.5c0.7-0.2,1.6-6,1.8-8c0.3-1.9,0.8-3.7,1.4-5.5c0-0.7,1.1-1.3,1.4-1.5
		c0.2-0.2,1-2.9,1.6-3.4c0.6-0.6,2.5-3.1,2.5-3.7c0.1-1.1,0.4-2.2,0.7-3.2v-3.6c-0.6-1.7-2.5-3.9-3-3.3c-0.5,0.6-2.6-1.5-3.8-1.9
		c-1.5-0.4-3-0.7-4.6-0.7c-0.7,0-3.1-2-4.2-2.3c-1.1-0.3-3.9-0.8-4.4-1.1c-0.5-0.3-1.1-4.5-3.4-5.9c-2.3-1.4-6.2-4.6-6.7-5.7
		c-0.5-1.2-4.7-3.6-6.1-4.4c-1.4-0.8-3.3-0.9-3.6-0.6c-0.2,0.3-2-2.3-2.8-3c-0.8-0.7-3.4-1.3-3.6-0.7c-0.1,0.6-1.8,0.2-2.2-0.2
		c-0.3-0.5-1.7,0.2-2.4,0.5c-0.7,0.2-2.8,3.4-3.8,4.2c-1,0.8-2.2-0.7-2.9-1c-1.3,0-2.7,0.3-3.8,1c-0.7,0.5-2.2-3.4-1.8-5.3
		c0.3-1.8-1.6-5.4-3.2-5.5c-1.6-0.1-2-3.9-1.7-5.3c0.2-1.4-2.8-2.3-3.6-2.4c-0.8-0.1-2.6,1.8-3,2.9c-0.3,1-7.3-1.3-6.5-5.5
		c0.8-4.2,4.1-8.6,4.9-9.1c0.8-0.5,5.3-0.7,6.3-0.1c0.7,0.4,1.5,0.3,2.1-0.2c1.7-0.1,3.3,0,4.9,0.5c1,0.5,2.6,4.7,3.8,5.2
		c1.1,0.5,1.5-2.8,1.7-3.6c-0.1-1.1-0.4-2.3-0.8-3.3c-0.2-0.6,1.8-5.7,3.6-6.5c1.7-0.8,3.6-3.8,3.3-4.2c-0.2-0.5,1.4-0.9,1.7-1.1
		c0.3-0.2,0-4.4,0.6-5.3c1.5-1.3,3.1-2.4,4.9-3.2c1-0.5,1.7-3,1.4-3.6c-0.3-0.6,2.6-3,4.2-3.6c1.6-0.6,2.9,0.9,2.5,1
		s2.4-1.3,3.3-1.8c0.9-0.6,0-2.6-0.7-3.2c-0.7-0.6-0.2-2.8,0.6-3c0.8-0.2,1.5-2.2,1.3-2.5c-0.2-0.3,3.4,0.3,4.8-0.7
		c1.4-1,0.3,2.4-0.6,3.9c-0.5,0.7-0.3,1.7,0.4,2.2c0.3,0.2,0.6,0.3,1,0.3c0.7,0,1.3,0.5,1.5,1.1c0.1,0.3,1.5-0.5,2.4,0
		c0.9,0.5,1.5-1.3,1.5-2.1c0-0.8-2.2-2.3-2.5-3.3c-0.3-2.5-0.5-5-0.5-7.5c0-1-1.5-2.9-2-2.5c-0.5,0.3-1.4-2.9-2.2-3.6
		c-0.6-0.8-1-1.8-0.9-2.8c0-0.5-2.5-3.2-3.2-4.5c-0.7-1.3-1.5-1-1.6-0.5c-0.1,0.6-1.8,0.7-2.6,0.6s-1.4-3-1.4-4c0-1-3.3-1.3-3.9-2.2
		s-2.8-0.5-3.1-1c-0.7-0.6-1.7-1-2.6-0.9c-0.3,0.2-0.2,8.2-0.6,10.2c-0.3,2.1-2.2,4-2.9,3.9c-0.7-0.1-0.2,1.5,0.1,1.4
		c0.3-0.1-1.3,2.3-1.5,3.9c-0.2,1.6-1.8,0-2.1-1.5c-0.2-1.5-1.8-3.4-2.2-3c-0.3,0.5-1.4-0.6-1.8-0.2c-0.5,0.3-3.4-1.7-4.7-2.4
		c-1.3-0.7-1.8-4.4-2.6-4.7c-0.8-0.3-0.1-0.8-0.1-1.4c0-0.6,2.4-2.8,3.1-3.6c0.7-0.8,3.3-4.2,4.4-5.1c1-0.8,1.8-2.6,1.6-3
		c-0.2-0.3,4.5-1.8,5.7-2.2c1.3-0.3,2.3-3.9,2.5-4.9c0-1.2-0.5-2.3-1.4-3.1c-0.6-0.2,1.7-0.3,2.5,0.1c0.8,0.5,3.1-0.7,4.1-0.2
		l4.2,2.5l-0.2,2.5L93.2,67c-3.7,1.5-4.7,4.1-3.4,4c1.3-0.1,7.1,2.5,8.7,3.7c1.6,1.1,2.2-1.7,2.6-2.6c0.4-1.4,0.4-2.9,0-4.2
		c-0.5-0.6,1.8-0.3,2.5,0.2c0.7,0.6,1.4-0.6,1.8-0.9c0.5-0.3,0.7-2.6,1-3.1c0.3-0.5-1-0.9-1.1-1.6c-0.1-0.7-2.6-1.7-3.4-2.2
		c-0.8-0.6-1-1.7-0.6-2.5c0.3-0.3-0.2-2.6-0.7-3.3c-0.5-0.7-3.1-1.4-4-1.4c-0.9,0-1.8-2.1-2.4-2.4c-1.6-0.4-3.3-0.6-4.9-0.5
		c-0.8,0.2-2.4-2.5-3.9-1.6c-1.5,0.9-3-0.9-3.7-1.4c-0.7-0.5-4.1,3.3-4,5.9c0.1,2.5,1.3,5,1.8,5.2c0.6,0.1-0.1,2.4-0.7,3.1
		c-0.6,0.7-2.1-0.7-1.5-1.3c0.6-0.6-1.5-3.3-2.2-4.4c-0.7-1-2.3-1.5-3.4-2L69.7,56c0.4,1,0.4,2.1,0.2,3.1c-0.5,1.6-1.8,1.8-1.8,1.1
		c-0.4-0.4-0.9-0.6-1.5-0.6l-2.1,2.6L62.4,65l-2.1,2.9l-1.8,2.5l-2.6,3.9l-2.4,3.8c-0.7,1-1.3,2.2-2,3.3c-0.5,0.7-0.9,1.5-1.3,2.3
		l-2,3.6l-1,2.1c-1.4,2.8-2.8,5.6-4,8.6v0.2l-1.7,4.4l-0.7,1.6l-1.6,4.5l-0.2,0.7c-1.8,5.1-3.2,10.3-4.5,15.5
		c-0.1,0.3-0.1,0.7-0.2,1c-1.3,5.6-2.2,11.2-2.9,16.9l0,0c0.8,0.7,1.4,1.6,1.8,2.6c0.5,1.4,2.9,2.3,3.3,2.6c0.5,0.3,0.6-2.6,0.2-3.4
		c-0.3-0.8,0.6-1.1,0.6-0.7s2.3,3.1,3,4.1c0.7,1,1.5,7,2.3,8.3c0.8,1.3,7.7,4,10,4.5c2.1,0.7,4,2,5.5,3.7c0.5,0.7,3.4,1,4,1.4
		c1,0.9,1.9,1.8,2.8,2.8c0.6,0.5,1,1.2,1.1,2c0,0.3,3.9,1.8,4.9,2.9c0.8,0.7,1.9,0.9,2.9,0.3c0.2-0.5,1,2.1,1.5,3
		c0.5,0.9,0.5,3,0.1,3.3c-0.3,0.3-0.8,4.2-1.5,5c-0.7,0.8-2.1,6.5-1.7,7.7c0.6,1.5,1.6,2.8,3,3.8c0.4,0.3,0.5,0.8,0.3,1.3
		c-0.1,0.2-0.2,0.3-0.4,0.3c-0.6,0-0.3,5.6,1.1,6.4C77.8,205.4,78.3,206.9,78.1,207.2z"/>
	<line fill="none" x1="96.8" y1="110" x2="96.8" y2="110"/>
	<path fill="#25CC25" d="M85.9,42.6c1.8-0.3,5.1-0.9,5.3-1.4c0.1-0.7,0.1-1.5-0.1-2.2H92c0.7,0,2-3.9,2.6-4.8c0.7-0.9,5-2.3,6.1-2.9
		c1-0.6,3.3-2.8,4.1-3.1c0.8-0.3,2.2-2.3,1.9-2.6c-0.2-0.3,3-2.3,4.1-2.8c1.1-0.5,1.8-1.8,1.4-2c-0.5-0.1-6.9,3.4-13,6.9h-0.1
		L94,31.5l-3.3,2.6L89,35.5l-3.9,3.3l-0.8,0.7L80,43.3L85.9,42.6z"/>
	<path fill="#25CC25" d="M187,120.5c-0.7,0-0.8,2.2,0,2.5c0.8,0.3,1.3-1.3,2-2.2V112h-0.1c-0.9-0.9-0.8-0.9,0.1-0.2V57.1l-2.1,1.8
		c-1.3,1-3.6,5.4-4.2,6.5c-0.5,0.7-1.3,1.2-2.2,1.3c-0.5,0.4-0.8,1-0.8,1.6c0,0.5-3.8,2.4-4.2,4.1c-0.5,1.7,0.5,5.7,0.5,7.1
		c0,1.4,1.4,4.2,2.4,4.2c1,0,0.6,2.4,0.2,3.1c-0.3,0.7,0.7,1.4,0.6,1.9c-0.1,0.6-2.6,1.4-3.4,1.6c-1.1,0.7-1.9,1.7-2.3,2.9
		c-0.1,0.6-2.6,1-3.6,1.8c-0.9,0.8,0.6-1.4,0.7-1.8c0.3-1,0.1-2.1-0.6-2.9c-0.3-0.3-0.6-4.9-1.3-6c-0.8-1.1-1.7-2.1-2.6-3
		c-0.5-0.3,0.2-1.5,0.6-2.1c0.3-0.6-2.2-0.8-2.8-0.5c-0.6,0.3-1,4.9-1.3,6.2c0,1.3,0.6,2.5,1.6,3.2c0.5,0.1,0.2,2.3-0.6,2.4
		c-0.8,0.1-1.6,3.3-1.2,4.1s-0.6,2.2-1,2.5c-0.5,0.3,3.2,0.1,4.9,0.1c1-0.1,2,0.2,2.9,0.8c-0.1,0.1-3.2,0.6-3.8,1.3
		c-0.6,0.7-2.6,2.1-3,2.6c-0.3,0.6,0.7,1.7,1.5,1.7s1.8,3,2.5,3.6c0.5,0.8,0.6,1.8,0.1,2.6c-0.2,0.5-4.5-0.2-6,0.1
		c-1.5,0.3-3.6,3.7-3.7,4.9c0,2,0.1,3.9,0.5,5.9c0.1,0.9,3.4,1.6,4.1,2.1c0.7,0.5,3.8,0,4.5,0.3c0.7,0.3,2.8-3.2,3.2-4.8
		c0.5-1.6,3.8-4.6,4.5-5.7c0.7-1.1,4.2-0.9,5.2-1.5c0.9-0.6,0.5,2.8,0.8,4.6c0.3,1.8,3.9,1.6,3.3-0.1c-0.6-1.7,0.3-2.4,0.5-1.8
		c0.1,0.6,3.4,2,4.1,2.9C188.3,117.9,187.7,120.5,187,120.5z"/>
	<path fill="#25CC25" d="M189,131.4c-0.5-0.3-1.1-0.6-1.7-0.8c-2.1-0.8-3.7-3.9-4-4.4s0.3-1.4,0.1-2.1c-0.2-0.7-4.8-0.7-6.2-0.2
		c-1.4,0.5-8.4,1.3-10,2c-1.6,0.7-4.1,0-4.9-0.1c-0.8-0.1-2.6,2.2-3.6,2.5c-0.9,0.3-2.1,3.7-2.6,7.2l-1.3,2.4l-0.8,1.6
		c-2.3,1.7-4.8,7.6-5.6,8.8c-0.8,1.3-1.4,9.6-1.4,12.5c0,2.9,2.4,8.8,3.2,10.6c0.8,1.7,4.9,5.3,6.4,6.2c1.5,0.9,6.1,1,7.6,1
		c1.8-0.2,3.3-1.5,3.8-3.2l2.2,0.2h1c0,1.3,3.3,2.2,4.1,2.6c1.2,0.3,2.4,0.3,3.6-0.1c0.6-0.1,1.4,5.6,0.9,7.3
		c-0.5,1.7,1.1,7.6,1.6,9.4c0.5,1.8,2.5,6.7,2.6,8.4c0.1,1.7-1.1,7.6-1.4,9.6c-0.2,2.1,2.5,7.7,3.2,9.6c0.7,2.3,1.1,4.7,1.3,7.1
		c0.4,1.4,0.9,2.8,1.6,4.1V131.2l0,0L189,131.4z"/>
	<path d="M107.3,271.6h2.2C109.7,269.2,107.2,269.5,107.3,271.6z"/>
	<path fill="#25CC25" d="M151.4,53.2c1.1,0.5,3.2-1,2.4-1.6c-0.8-0.6-0.3-0.6,0-0.3c0.3,0.2,0.8-2,0.5-2.4c-0.3-0.5,3.2-3.1,2.6-5.6
		c-0.6-2.5,1-5.2,1.9-5.2c0.9,0,0.7-2.9-0.6-3.1c-1.3-0.2,0-0.5,0.5-0.9c0.5-1.1,0.7-2.3,0.7-3.4c-0.2-0.5,1.8-1,2.2-1.6
		c1-0.9,2.2-1.5,3.6-1.8c0.9-0.1,1.3-2.4,0.5-2.3c-1.3,0.1-2.5-0.2-3.7-0.8c-0.5-0.5-3.9-0.8-4.9-0.5c-1,0.3-0.3-2.5,1-2.8
		c1.4-0.2,0.2-2.3-1.3-2.3c-1.5,0-5.3-0.6-6.1-0.3c-1.1-0.1-2.2-0.3-3.2-0.7c-0.6-0.1-5.2,1.4-7.2,1.3c-2.8-0.1-5.7,0.1-8.5,0.5
		c-1.1,0.2-2,2.5-1.7,3.3c0.2,0.8-5.1,0.8-6.7,0.8c-1.6,0-10.4,1.8-12.7,3.1c-2.3,1.3-4,4.5-3.3,4.5s-1.3,1.8-2.5,2.3
		c-1.3,0.5-4.1,0.6-4.8,1.3c-0.7,0.7,0.7,1.1,0.9,1.6s1-0.5,1.8,0c0.8,0.5,3.3,0.6,4,0.9c0.7,0.3-2.2,0.8-3.4,0.9
		c-1.3,0.1-1,2.6,0,3.1c1,0.5,3.9,0.7,4.1,0.2c0.2-0.5,3.3,0.5,4.7,0.7c1.4,0.2,2.4,3.6,2.9,4.4c0.5,0.8,0.5,3.3,0.5,4.1
		c0,0.8,2.4,2.1,2.9,1.6c0.5-0.5,0.3,1.1-0.7,1c-1-0.1-0.3,2.8,0.9,3.2c1.3,0.5,0.3,2.2-0.3,2.8c-0.7,0.6-0.3,2.2-1,2.9
		c-0.7,0.7,2.6,6.4,2.5,9.4c-0.1,3,1.8,5.4,2.5,5.4c0.7,0,3.1,0.6,3.4,1.3c0.3,0.7,1.5-0.5,2-0.9c0.5-0.5,1.4-2,2.2-3.2
		c0.8-1.3,2.4-7.2,2.6-7.9c0.2-0.7,3-0.2,3.7-0.6c1-0.7,2-1.4,3-2.2c0.5-0.5,4.5-2.1,5.6-2.9c1.1-0.8,2.9-4.1,3.8-4.9
		c0.9-0.8-0.5-0.5-1.5-1.1c-0.6-0.3-0.8-1-0.4-1.6c0.1-0.1,0.1-0.2,0.2-0.3C147.1,51.9,150.4,52.7,151.4,53.2z"/>
	<path fill="#25CC25" d="M186.5,26.6c-1.1-0.3-3.4,0.9-3.1,1.6c0.3,0.7-1.8-0.9-3.3-0.1c-1.5,0.8-2,3.4-1.3,3.8
		c0.7,0.3,1.1,2.4,1.1,2.9s2.9,0.1,3.7-0.5c0.8-0.6,0.6,2.1-0.1,2.9c-0.7,0.8,0.2,2.2,1,2.3c0.8,0.1,1.8,2,2.8,2
		c0.7-0.3,1.3-1,1.5-1.7v-9.9l0,0C188.3,29.8,187.7,27,186.5,26.6z"/>
	<path fill="#25CC25" d="M159,93.2c0.8-0.1,1.4-0.8,1.5-1.6c0-0.7-1.3-4-1.7-4s-1.4,2.4-2.1,2.2c-0.7-0.2-0.9,2-0.8,2.8
		C156,93.3,158,93.4,159,93.2z"/>
	<path fill="#25CC25" d="M155.8,68.5c0.4,0.9,1.4,1.4,2.4,1.3c1-0.1,3.1-1.3,3.9-1.4c0.8-0.1,1.5-3.8,1-4.6
		c-0.5-0.8-3.9-0.7-4.8-0.7c-1.4-0.3-2.8-0.8-4-1.5c-0.6-0.6-0.8,2.2-1.6,2.5c-0.8,0.3,0.3,0.8,0.7,0.6c0.3-0.2,0,1.4-0.5,2
		C152.5,67.3,155.5,67.8,155.8,68.5z"/>
	<path d="M77,68.6c-0.6,0.5,0,3.1,0.9,3.1s2.8-3.9,4-3.1s2.2,1,2,0.7c-0.2-0.3-3.9-2-4.4-2.3C79.1,66.7,77.6,68.2,77,68.6z"/>
	<path d="M90.5,156.4c0,0.5,2.3,0.3,2.6-0.3c0.3-0.7,0.1-1.3-0.5-1.3C91.7,155,91,155.6,90.5,156.4z"/>
	<path d="M80.2,152.6c1-0.2,0.6,1.5,0.8,2.2c0.2,0.7,2.9,1.1,3.4,1.6c0.6,0.5,1.8-0.8,2.9-0.7c1,0.1-0.3-3.7-2.1-3.6
		c-1.7,0.1-3.1-1.6-3.6-1.8c-1-0.5-2-1.1-3-1.8c-0.6-0.5-5-0.8-6.5-0.8c-1.4,0.1-2.7,0.9-3.4,2.1c-0.2,0.5,2.4,0.9,3.1,0.5
		c0.7-0.5,4.2,0.5,5.1,1.3C77.8,152.3,79,152.7,80.2,152.6z"/>
	<path d="M75.4,156.4c0,0.5,2.3,0.1,2.9,0.1s0.6-0.5,0-0.8C77.7,155.3,75.4,155.9,75.4,156.4z"/>
	<path d="M77,144.4c-0.6-0.2-1,0.7-1,1.1c0,0.4,0.3,0.7,0.7,0.8C77.1,146.4,77.7,144.6,77,144.4z"/>
	<path d="M82,144.8c-0.3-0.5-0.9-0.8-1.5-0.8c-0.3,0-0.5,0.7-0.5,1.7S82.1,145.2,82,144.8z"/>
	<path d="M85.4,150.2c0.9-0.5,1-1.5,0.5-1.5s-1.6-1.6-2.2-1.8c-0.6-0.2-1,1-1,1.5c-0.1,0.4,0.2,0.7,0.6,0.8c0,0,0.1,0,0.1,0
		C83.8,149,84.5,150.6,85.4,150.2z"/>
	<path fill="#25CC25" d="M91.1,39.4c-0.1-0.1-0.8,0.3-0.5,0.6C91,40.2,91.5,39.7,91.1,39.4z"/>
	<path d="M108.8,92.1c-0.1-0.1-0.8,0.3-0.6,0.6C108.5,92.9,109.2,92.4,108.8,92.1z"/>
	<path fill="#236BC1" d="M108.1,46.4H19.4C8.7,46.4,0,55.1,0,65.8v212.7c0,10.7,8.7,19.4,19.4,19.4h88.7c10.7,0,19.4-8.7,19.4-19.4
		V65.9c0.1-10.7-8.4-19.4-19.1-19.5C108.4,46.4,108.3,46.4,108.1,46.4z"/>
	<path d="M47,61.5h33.5c1,0,1.7,0.8,1.7,1.7c0.1,0.9-0.6,1.7-1.5,1.7c-0.1,0-0.2,0-0.2,0H47c-0.9,0-1.7-0.8-1.7-1.7
		C45.2,62.3,46,61.5,47,61.5z"/>
	<path d="M63.7,283.7c-6.2,0-11.3-5-11.3-11.3s5-11.2,11.3-11.2c6.2,0,11.3,5,11.3,11.2C74.9,278.6,69.9,283.6,63.7,283.7z"/>
	<rect x="8.3" y="84.7" fill="#F7F7F7" width="110.8" height="164"/>
	<path d="M63.7,264.6c-4.3,0.1-7.7,3.5-7.8,7.8c0,4.3,3.5,7.8,7.8,7.8c4.3,0,7.8-3.5,7.8-7.8C71.5,268.1,68,264.6,63.7,264.6z"/>
	<rect x="14.7" y="122.6" fill="#23066D" width="98" height="50.4"/>
	<rect x="41.6" y="100.9" width="70.8" height="7"/>
	<path d="M33.1,104.5c0,5.1-4.1,9.2-9.2,9.2c-5.1,0-9.2-4.1-9.2-9.2s4.1-9.2,9.2-9.2C28.9,95.3,33.1,99.4,33.1,104.5z"/>
	<rect x="14.7" y="205.4" width="98" height="2.9"/>
	<rect x="14.7" y="215.4" width="98" height="2.9"/>
	<rect x="14.7" y="225.2" width="98" height="2.9"/>
	<rect x="14.7" y="235.1" width="71.2" height="2.9"/>
	<rect x="14.7" y="186.2" width="65.2" height="7"/>
</g>
<g>
</g>
<g>
</g>
<g>
</g>
<g>
</g>
<g>
</g>
<g>
</g>
<g>
</g>
<g>
</g>
<g>
</g>
<g>
</g>
<g>
</g>
<g>
</g>
<g>
</g>
<g>
</g>
<g>
</g>
</svg>
