<?xml version="1.0" encoding="utf-8"?>
<!-- Generator: Adobe Illustrator 16.0.0, SVG Export Plug-In . SVG Version: 6.00 Build 0)  -->
<!DOCTYPE svg PUBLIC "-//W3C//DTD SVG 1.1//EN" "http://www.w3.org/Graphics/SVG/1.1/DTD/svg11.dtd">
<svg version="1.1" id="Capa_1" xmlns="http://www.w3.org/2000/svg" xmlns:xlink="http://www.w3.org/1999/xlink" x="0px" y="0px"
	 width="174.3px" height="174.3px" viewBox="0 0 174.3 174.3" enable-background="new 0 0 174.3 174.3" xml:space="preserve">
<g>
	<path fill="#7A05AC" d="M87.2,0c48.1,0,87.2,39,87.2,87.2c0,48.1-39,87.2-87.2,87.2C39,174.3,0,135.3,0,87.2C0,39,39,0,87.2,0z"/>
	<path fill="#F9F9F9" d="M73.6,91.1V77.7c-0.1-0.6,0.2-1.2,0.6-1.7l1.7-0.6h0.8v-4.4c0-5.8,4.7-10.5,10.6-10.5
		c5.8,0,10.5,4.7,10.5,10.5v4.4h0.8l1.7,0.6c0.4,0.5,0.6,1.1,0.6,1.7v13.6c0.1,0.6-0.1,1.2-0.6,1.7l-1.7,0.6H76.1L74.4,93
		C73.8,92.6,73.4,91.8,73.6,91.1z M81.1,75.2H93v-4.4c0-1.6-0.6-3.1-1.7-4.2c-1.1-1.1-2.6-1.7-4.2-1.7c-1.6,0-3.1,0.6-4.2,1.7
		c-1.1,1.1-1.7,2.6-1.7,4.2v4.4l0,0H81.1z"/>
	<path fill="#F9F9F9" d="M36.9,111.9V55c0-2.2,0.9-4.3,2.5-5.8c1.5-1.6,3.6-2.5,5.8-2.5h83.6c2.2,0,4.3,0.9,5.8,2.5
		c1.6,1.5,2.5,3.6,2.5,5.8v56.9c0,2.2-0.9,4.3-2.5,5.8c-1.5,1.6-3.6,2.5-5.8,2.5h-28.3c0,1.3,0.3,2.7,0.8,3.9l1.7,3.6
		c0.4,0.7,0.7,1.4,0.8,2.2c0,1.8-1.5,3.3-3.3,3.3H73.6c-1.8,0-3.3-1.5-3.3-3.3c0.1-0.8,0.4-1.5,0.8-2.2l1.7-3.6
		c0.5-1.3,0.8-2.7,0.8-4.2H45.3c-2.2,0-4.3-0.9-5.8-2.5C37.9,116,37,114,36.9,111.9z M43.6,98.6c0,0.4,0.2,0.8,0.6,1.1l1.1,0.6h83.6
		l1.1-0.6c0.3-0.3,0.5-0.7,0.6-1.1V55.2c0-0.4-0.2-0.8-0.6-1.1l-1.1-0.6H45.3l-1.1,0.6c-0.3,0.3-0.5,0.7-0.6,1.1V98.6L43.6,98.6z"/>
</g>
</svg>
