<?xml version="1.0" encoding="utf-8"?>
<!-- Generator: Adobe Illustrator 16.0.0, SVG Export Plug-In . SVG Version: 6.00 Build 0)  -->
<!DOCTYPE svg PUBLIC "-//W3C//DTD SVG 1.1//EN" "http://www.w3.org/Graphics/SVG/1.1/DTD/svg11.dtd">
<svg version="1.1" id="Capa_1" xmlns="http://www.w3.org/2000/svg" xmlns:xlink="http://www.w3.org/1999/xlink" x="0px" y="0px"
	 width="174.3px" height="174.3px" viewBox="0 0 174.3 174.3" enable-background="new 0 0 174.3 174.3" xml:space="preserve">
<g>
	<circle fill="#7A05AC" cx="87.2" cy="87.2" r="87.2"/>
	<path fill="#FCFCFC" d="M39.5,91.9v-9.3c-0.2-0.4-0.2-0.8,0-1.1l0.6-0.6l7.9-1.1c0.5-1.4,1-2.7,1.7-3.9l-4.5-5.9
		c-0.2-0.3-0.3-0.7-0.3-1.1c-0.1-0.4,0-0.8,0.3-1.1l4.2-4.5c1-1.3,2.4-2.4,3.9-3.1h1.1l5.9,4.5l3.9-1.7c0.2-2.8,0.6-5.6,1.1-8.4
		c0.1-0.8,0.6-1.6,1.4-2h9.5c0.4,0.3,0.8,0.7,1.1,1.1c0.3,0.4,0.5,0.9,0.6,1.4l1.1,7.8l3.9,1.7l5.9-4.5h2c4.8,4.5,7.3,7,7.3,8.1
		c0,0.4-0.1,0.8-0.3,1.1l-2.2,2.8l-2.2,3.1l1.7,4.2l7.6,1.1l1.1,0.6c0.3,0.3,0.5,0.7,0.6,1.1v9.2c-0.1,0.4-0.3,0.8-0.6,1.1l-1.1,0.6
		l-7.9,1.1c-0.4,1.4-1,2.7-1.7,3.9l4.5,5.9c0.2,0.3,0.3,0.7,0.3,1.1c0.1,0.4,0,0.8-0.3,1.1l-4.2,4.5c-1,1.3-2.4,2.4-3.9,3.1h-1.1
		l-5.9-4.5l-3.9,1.7c-0.3,3.6-0.8,6.7-1.1,8.4c-0.1,0.8-0.7,1.4-1.4,1.7h-9.3c-0.5-0.3-0.9-0.7-1.1-1.1c-0.3-0.3-0.5-0.7-0.6-1.1
		l-1.1-7.8l-3.9-1.7l-5.9,4.5h-2c-4.8-4.5-7.3-7-7.3-8.1c0-0.4,0.1-0.8,0.3-1.1l2-2.5l2.2-3.1c-0.7-1.3-1.2-2.8-1.7-4.2l-7.6-1.1
		l-0.6-0.6C39.3,92.9,39.4,92.4,39.5,91.9z M61.9,78.2c-5,5.1-4.8,13.3,0.3,18.2c5.1,5,13.3,4.8,18.2-0.3c5-5.1,4.8-13.3-0.3-18.2
		c-2.5-2.4-5.8-3.7-9.3-3.6c-3.3,0.2-6.4,1.6-8.7,3.9H61.9z M103.7,66.7c-5-0.6-8.1-1.1-8.1-1.7v-7c0-0.6,3.1-1.1,8.1-1.7
		c0.6-0.9,1.2-1.7,2-2.5c-1.2-2.2-2.1-4.6-2.5-7h0.3l1.7-1.1l3.1-1.7l1.4-0.8c0.9,0.6,1.7,1.3,2.2,2.2l2.5,3.4h3.1
		c1.5-2,3-3.9,4.8-5.6h0.3l6.2,3.4h0.3c-0.5,2.4-1.4,4.8-2.5,7c0.5,0.8,0.8,1.6,1.1,2.5c5,0.6,7,1.1,7,1.7v7c0,0.6-2,1.1-7,1.7
		c-0.4,0.9-0.9,1.7-1.4,2.5c1.2,2.2,2.2,4.6,2.8,7h-0.3l-6.2,3.6c-0.9-0.6-1.7-1.3-2.2-2.2l-2.5-3.4h-3.1l-2.5,3.4
		c-0.6,0.9-1.3,1.7-2.2,2.2l-6.2-3.6h-0.3c0.3-2.5,1.1-4.8,2.2-7l-1.7-2.5l0,0L103.7,66.7z M103.7,118.3c-5-0.6-8.1-1.1-8.1-1.7v-7
		c0-0.6,3.1-1.1,8.1-1.7c0.6-0.9,1.2-1.8,2-2.5c-1.2-2.2-2.1-4.6-2.5-7h0.3l1.7-1.1l3.1-1.7l1.4-0.8c0.9,0.6,1.7,1.3,2.2,2.2
		l2.5,3.4h3.1c1.5-2,3-3.8,4.8-5.6h0.3l6.2,3.4h0.3c-0.5,2.4-1.4,4.8-2.5,7c0.5,0.8,0.8,1.6,1.1,2.5c5,0.6,7,1.1,7,1.7v7
		c0,0.6-2,1.1-7,1.7c-0.4,0.9-0.9,1.7-1.4,2.5c1.2,2.2,2.2,4.6,2.8,7h-0.3l-6.2,3.6c-0.9-0.6-1.7-1.3-2.2-2.2l-2.5-3.4h-3.1
		l-2.5,3.4c-0.6,0.9-1.3,1.7-2.2,2.2l-6.2-3.6h-0.3c0.3-2.5,1.1-4.8,2.2-7L104,118l0,0L103.7,118.3z M109.9,61.7
		c-0.1,3.6,2.7,6.5,6.3,6.6c3.6,0.1,6.5-2.7,6.6-6.3c0.1-3.6-2.7-6.5-6.3-6.6c-1.7,0-3.4,0.6-4.6,1.8c-1.2,1.1-1.9,2.6-2,4.2V61.7z
		 M109.9,113.2c-0.1,3.6,2.7,6.5,6.3,6.6c3.6,0.1,6.5-2.7,6.6-6.3c0.1-3.6-2.7-6.5-6.3-6.6c-1.7,0-3.4,0.6-4.6,1.8
		c-1.2,1.1-1.9,2.6-2,4.2V113.2z"/>
</g>
</svg>
