<?xml version="1.0" encoding="utf-8"?>
<!-- Generator: Adobe Illustrator 16.0.0, SVG Export Plug-In . SVG Version: 6.00 Build 0)  -->
<!DOCTYPE svg PUBLIC "-//W3C//DTD SVG 1.1//EN" "http://www.w3.org/Graphics/SVG/1.1/DTD/svg11.dtd">
<svg version="1.1" id="Capa_1" xmlns="http://www.w3.org/2000/svg" xmlns:xlink="http://www.w3.org/1999/xlink" x="0px" y="0px"
	 width="174.3px" height="174.3px" viewBox="0 0 174.3 174.3" enable-background="new 0 0 174.3 174.3" xml:space="preserve">
<g>
	<circle fill="#7A05AC" cx="87.2" cy="87.2" r="87.2"/>
	<path fill="#F9F9F9" d="M73.6,101.6V88c-0.1-0.6,0.1-1.2,0.6-1.7l1.7-0.6h0.8v-4.4c0-5.8,4.7-10.5,10.6-10.5
		c5.8,0,10.5,4.7,10.5,10.5v4.4h0.8l1.7,0.6c0.4,0.5,0.6,1.1,0.6,1.7v13.6c0.1,0.6-0.1,1.2-0.6,1.7l-1.7,0.6H75.8l-1.7-0.6
		C73.7,102.8,73.5,102.2,73.6,101.6z M81.1,85.8H93v-4.4c0-1.6-0.6-3.1-1.7-4.2c-1.1-1.1-2.6-1.7-4.2-1.7c-1.6,0-3.1,0.6-4.2,1.7
		c-1.1,1.1-1.7,2.6-1.7,4.2v4.4l0,0H81.1z"/>
	<path fill="#FBFAFC" d="M33.6,109.7c-3.1-7.2-4.7-14.9-4.7-22.8c0-7.8,1.6-15.6,4.7-22.8c3-6.9,7.2-13.2,12.5-18.6
		c5.3-5.4,11.6-9.6,18.6-12.5c7.2-3.1,14.9-4.7,22.8-4.7c7.8,0,15.6,1.6,22.8,4.7c6.9,3,13.2,7.2,18.6,12.5
		c5.4,5.3,9.6,11.6,12.5,18.6c3.1,7.2,4.7,14.9,4.7,22.8c0,7.8-1.6,15.6-4.7,22.8c-3,6.9-7.2,13.2-12.5,18.6
		c-11.1,10.8-25.9,16.9-41.4,16.9c-7.8,0-15.6-1.6-22.8-4.7c-6.9-3-13.2-7.2-18.6-12.5C40.8,122.7,36.6,116.5,33.6,109.7z
		 M43.3,63.3c-7.8,14.8-7.8,32.4,0,47.2L55.8,98c-1.2-3.5-1.9-7.1-1.9-10.8c0-3.7,0.7-7.3,1.9-10.8L43.3,63.6l0,0V63.3z M70,69.1
		c-9.7,9.9-9.5,25.7,0.4,35.3c9.9,9.7,25.7,9.5,35.3-0.4c9.7-9.9,9.5-25.7-0.4-35.3c-4.7-4.6-11-7.2-17.6-7.1
		C81,61.6,74.6,64.3,70,69.1L70,69.1z M64.1,42.5L76.6,55c3.5-1.2,7.1-1.9,10.8-1.9c3.7,0,7.4,0.7,10.8,1.9L111,42.5
		c-14.8-7.8-32.5-7.7-47.2,0.3L64.1,42.5z M64.1,131c14.8,7.8,32.4,7.8,47.2,0l-12.5-12.5c-3.5,1.2-7.1,1.9-10.8,1.9
		c-3.7,0-7.4-0.7-10.8-1.9L64.1,131z M119.4,97.7l12.5,12.5c7.8-14.8,7.8-32.4,0-47.2l-12.5,12.5c2.4,7.2,2.3,15.1-0.3,22.2H119.4z"
		/>
</g>
</svg>
